{
.appVersion = "3090";
.formatVersion = 3;
axes = (
{
name = Weight;
tag = wght;
}
);
date = "2021-06-26 07:58:45 +0000";
familyName = "Fira Math Monospaced";
fontMaster = (
{
axesValues = (
2
);
guides = (
{
locked = 1;
name = "Axis height";
pos = (0,280);
},
{
locked = 1;
name = "Integral contour";
pos = (0,300);
}
);
iconName = Light;
id = "D42A05F0-DBDC-4569-915A-03C7188507B6";
metricValues = (
{
over = 12;
pos = 727;
},
{
over = 12;
pos = 680;
},
{
over = 12;
pos = 517;
},
{
over = -12;
},
{
over = -12;
pos = -188;
}
);
name = Light;
},
{
axesValues = (
30
);
guides = (
{
locked = 1;
pos = (0,653);
},
{
locked = 1;
pos = (0,29);
},
{
locked = 1;
name = "Axis height";
pos = (0,280);
},
{
locked = 1;
name = "Integral contour";
pos = (0,300);
}
);
iconName = SemiLight;
id = "B2FE45D6-EF48-417F-ACCD-B60D15D1CAF3";
metricValues = (
{
over = 12;
pos = 734;
},
{
over = 12;
pos = 682;
},
{
over = 12;
pos = 520;
},
{
over = -12;
},
{
over = -12;
pos = -193;
}
);
name = SemiLight;
},
{
axesValues = (
92
);
guides = (
{
locked = 1;
name = "Axis height";
pos = (0,280);
},
{
locked = 1;
pos = (0,72);
},
{
locked = 1;
pos = (0,617);
},
{
locked = 1;
name = "Integral contour";
pos = (0,300);
}
);
id = "D92A4C0B-EB2A-4209-AFE3-2959A8B274DD";
metricValues = (
{
over = 14;
pos = 739;
},
{
over = 14;
pos = 689;
},
{
over = 14;
pos = 527;
},
{
over = -14;
},
{
over = -15;
pos = -202;
}
);
name = Regular;
},
{
axesValues = (
198
);
guides = (
{
locked = 1;
name = "Axis height";
pos = (0,280);
},
{
locked = 1;
name = "Integral contour";
pos = (0,300);
},
{
locked = 1;
pos = (0,580);
},
{
locked = 1;
pos = (0,116);
}
);
iconName = Bold;
id = "B26C53A4-97D1-457B-8232-65310EC64496";
metricValues = (
{
over = 20;
pos = 744;
},
{
over = 20;
pos = 696;
},
{
over = 20;
pos = 534;
},
{
over = -20;
},
{
over = -20;
pos = -215;
}
);
name = Bold;
}
);
glyphs = (
{
category = Letter;
glyphname = u1D670;
lastChange = "2021-06-26 08:00:35 +0000";
layers = (
{
layerId = "D42A05F0-DBDC-4569-915A-03C7188507B6";
width = 600;
},
{
layerId = "B2FE45D6-EF48-417F-ACCD-B60D15D1CAF3";
width = 600;
},
{
layerId = "D92A4C0B-EB2A-4209-AFE3-2959A8B274DD";
shapes = (
{
closed = 1;
nodes = (
(504,0,l),
(570,0,l),
(342,687,l),
(258,687,l),
(30,0,l),
(90,0,l),
(151,184,l),
(444,184,l)
);
},
{
closed = 1;
nodes = (
(298,628,l),
(423,242,l),
(172,242,l)
);
}
);
width = 600;
},
{
layerId = "B26C53A4-97D1-457B-8232-65310EC64496";
shapes = (
{
closed = 1;
nodes = (
(437,0,l),
(612,0,l),
(400,693,l),
(201,693,l),
(-11,0,l),
(161,0,l),
(197,150,l),
(400,150,l)
);
},
{
closed = 1;
nodes = (
(298,575,l),
(373,269,l),
(223,269,l)
);
}
);
width = 600;
}
);
script = math;
unicode = 120432;
},
{
category = Letter;
glyphname = u1D671;
lastChange = "2021-06-26 07:59:45 +0000";
layers = (
{
layerId = "D42A05F0-DBDC-4569-915A-03C7188507B6";
width = 600;
},
{
layerId = "B2FE45D6-EF48-417F-ACCD-B60D15D1CAF3";
width = 600;
},
{
layerId = "D92A4C0B-EB2A-4209-AFE3-2959A8B274DD";
shapes = (
{
closed = 1;
nodes = (
(462,79,o),
(370,58,o),
(302,58,cs),
(172,58,l),
(172,329,l),
(305,329,ls),
(388,329,o),
(462,302,o),
(462,189,cs)
);
},
{
closed = 1;
nodes = (
(434,427,o),
(384,390,o),
(300,390,cs),
(172,390,l),
(172,631,l),
(290,631,ls),
(377,631,o),
(434,599,o),
(434,514,cs)
);
},
{
closed = 1;
nodes = (
(530,313,o),
(449,351,o),
(372,364,c),
(437,378,o),
(500,425,o),
(500,515,cs),
(500,650,o),
(377,687,o),
(263,687,cs),
(109,687,l),
(109,0,l),
(280,0,ls),
(400,0,o),
(530,48,o),
(530,195,cs)
);
}
);
width = 600;
},
{
layerId = "B26C53A4-97D1-457B-8232-65310EC64496";
shapes = (
{
closed = 1;
nodes = (
(402,134,o),
(345,120,o),
(281,120,cs),
(220,120,l),
(220,307,l),
(288,307,ls),
(357,307,o),
(402,283,o),
(402,210,cs)
);
},
{
closed = 1;
nodes = (
(376,441,o),
(346,417,o),
(276,417,cs),
(220,417,l),
(220,577,l),
(271,577,ls),
(343,577,o),
(376,554,o),
(376,500,cs)
);
},
{
closed = 1;
nodes = (
(571,314,o),
(488,355,o),
(414,367,c),
(482,384,o),
(541,433,o),
(541,516,cs),
(541,651,o),
(418,693,o),
(276,693,cs),
(56,693,l),
(56,0,l),
(286,0,ls),
(436,0,o),
(571,43,o),
(571,203,cs)
);
}
);
width = 600;
}
);
script = math;
unicode = 120433;
},
{
category = Letter;
glyphname = u1D672;
lastChange = "2021-06-26 07:59:45 +0000";
layers = (
{
layerId = "D42A05F0-DBDC-4569-915A-03C7188507B6";
width = 600;
},
{
layerId = "B2FE45D6-EF48-417F-ACCD-B60D15D1CAF3";
width = 600;
},
{
layerId = "D92A4C0B-EB2A-4209-AFE3-2959A8B274DD";
shapes = (
{
closed = 1;
nodes = (
(206,697,o),
(72,576,o),
(72,344,cs),
(72,115,o),
(202,-10,o),
(363,-10,cs),
(459,-10,o),
(522,22,o),
(561,60,c),
(525,106,l),
(489,76,o),
(441,49,o),
(362,49,cs),
(238,49,o),
(139,127,o),
(139,344,cs),
(139,566,o),
(245,639,o),
(365,639,cs),
(418,639,o),
(467,626,o),
(512,588,c),
(551,632,l),
(497,675,o),
(445,697,o),
(358,697,cs)
);
}
);
width = 600;
},
{
layerId = "B26C53A4-97D1-457B-8232-65310EC64496";
shapes = (
{
closed = 1;
nodes = (
(175,711,o),
(34,580,o),
(34,348,cs),
(34,110,o),
(168,-17,o),
(356,-17,cs),
(463,-17,o),
(538,25,o),
(590,77,c),
(515,172,l),
(477,141,o),
(434,110,o),
(365,110,cs),
(271,110,o),
(204,181,o),
(204,348,cs),
(204,518,o),
(275,589,o),
(362,589,cs),
(416,589,o),
(462,569,o),
(500,538,c),
(581,635,l),
(523,683,o),
(458,711,o),
(358,711,cs)
);
}
);
width = 600;
}
);
script = math;
unicode = 120434;
},
{
category = Letter;
glyphname = u1D673;
lastChange = "2021-06-26 07:59:45 +0000";
layers = (
{
layerId = "D42A05F0-DBDC-4569-915A-03C7188507B6";
width = 600;
},
{
layerId = "B2FE45D6-EF48-417F-ACCD-B60D15D1CAF3";
width = 600;
},
{
layerId = "D92A4C0B-EB2A-4209-AFE3-2959A8B274DD";
shapes = (
{
closed = 1;
nodes = (
(477,106,o),
(354,55,o),
(253,55,cs),
(157,55,l),
(157,631,l),
(251,631,ls),
(348,631,o),
(477,603,o),
(477,347,cs)
);
},
{
closed = 1;
nodes = (
(546,633,o),
(388,687,o),
(232,687,cs),
(93,687,l),
(93,0,l),
(242,0,ls),
(376,0,o),
(546,57,o),
(546,347,cs)
);
}
);
width = 600;
},
{
layerId = "B26C53A4-97D1-457B-8232-65310EC64496";
shapes = (
{
closed = 1;
nodes = (
(405,168,o),
(342,119,o),
(251,119,cs),
(216,119,l),
(216,574,l),
(251,574,ls),
(338,574,o),
(405,537,o),
(405,350,cs)
);
},
{
closed = 1;
nodes = (
(575,636,o),
(405,693,o),
(227,693,cs),
(52,693,l),
(52,0,l),
(239,0,ls),
(412,0,o),
(575,68,o),
(575,350,cs)
);
}
);
width = 600;
}
);
script = math;
unicode = 120435;
},
{
category = Letter;
glyphname = u1D674;
lastChange = "2021-06-26 07:59:45 +0000";
layers = (
{
layerId = "D42A05F0-DBDC-4569-915A-03C7188507B6";
width = 600;
},
{
layerId = "B2FE45D6-EF48-417F-ACCD-B60D15D1CAF3";
width = 600;
},
{
layerId = "D92A4C0B-EB2A-4209-AFE3-2959A8B274DD";
shapes = (
{
closed = 1;
nodes = (
(500,630,l),
(508,687,l),
(135,687,l),
(135,0,l),
(520,0,l),
(520,56,l),
(199,56,l),
(199,320,l),
(459,320,l),
(459,379,l),
(199,379,l),
(199,630,l)
);
}
);
width = 600;
},
{
layerId = "B26C53A4-97D1-457B-8232-65310EC64496";
shapes = (
{
closed = 1;
nodes = (
(530,576,l),
(546,693,l),
(93,693,l),
(93,0,l),
(547,0,l),
(547,118,l),
(257,118,l),
(257,295,l),
(497,295,l),
(497,410,l),
(257,410,l),
(257,576,l)
);
}
);
width = 600;
}
);
script = math;
unicode = 120436;
},
{
category = Letter;
glyphname = u1D675;
lastChange = "2021-06-26 07:59:45 +0000";
layers = (
{
layerId = "D42A05F0-DBDC-4569-915A-03C7188507B6";
width = 600;
},
{
layerId = "B2FE45D6-EF48-417F-ACCD-B60D15D1CAF3";
width = 600;
},
{
layerId = "D92A4C0B-EB2A-4209-AFE3-2959A8B274DD";
shapes = (
{
closed = 1;
nodes = (
(530,630,l),
(538,687,l),
(148,687,l),
(148,0,l),
(211,0,l),
(211,316,l),
(489,316,l),
(489,372,l),
(211,372,l),
(211,630,l)
);
}
);
width = 600;
},
{
layerId = "B26C53A4-97D1-457B-8232-65310EC64496";
shapes = (
{
closed = 1;
nodes = (
(547,576,l),
(564,693,l),
(108,693,l),
(108,0,l),
(273,0,l),
(273,275,l),
(516,275,l),
(516,393,l),
(273,393,l),
(273,576,l)
);
}
);
width = 600;
}
);
script = math;
unicode = 120437;
},
{
category = Letter;
glyphname = u1D676;
lastChange = "2021-06-26 07:59:45 +0000";
layers = (
{
layerId = "D42A05F0-DBDC-4569-915A-03C7188507B6";
width = 600;
},
{
layerId = "B2FE45D6-EF48-417F-ACCD-B60D15D1CAF3";
width = 600;
},
{
layerId = "D92A4C0B-EB2A-4209-AFE3-2959A8B274DD";
shapes = (
{
closed = 1;
nodes = (
(409,-10,o),
(470,16,o),
(530,47,c),
(530,371,l),
(306,371,l),
(315,311,l),
(464,311,l),
(464,86,l),
(420,62,o),
(372,49,o),
(320,49,cs),
(192,49,o),
(123,139,o),
(123,344,cs),
(123,568,o),
(227,638,o),
(329,638,cs),
(388,638,o),
(436,620,o),
(478,580,c),
(520,624,l),
(466,673,o),
(417,697,o),
(331,697,cs),
(192,697,o),
(53,581,o),
(53,344,cs),
(53,106,o),
(157,-10,o),
(310,-10,cs)
);
}
);
width = 600;
},
{
layerId = "B26C53A4-97D1-457B-8232-65310EC64496";
shapes = (
{
closed = 1;
nodes = (
(420,-17,o),
(499,10,o),
(568,53,c),
(568,398,l),
(310,398,l),
(326,283,l),
(413,283,l),
(413,124,l),
(389,111,o),
(360,103,o),
(327,103,cs),
(235,103,o),
(192,166,o),
(192,347,cs),
(192,521,o),
(260,591,o),
(353,591,cs),
(402,591,o),
(437,573,o),
(479,536,c),
(565,625,l),
(511,676,o),
(446,711,o),
(345,711,cs),
(165,711,o),
(23,584,o),
(23,348,cs),
(23,110,o),
(129,-17,o),
(326,-17,cs)
);
}
);
width = 600;
}
);
script = math;
unicode = 120438;
},
{
category = Letter;
glyphname = u1D677;
lastChange = "2021-06-26 07:59:45 +0000";
layers = (
{
layerId = "D42A05F0-DBDC-4569-915A-03C7188507B6";
width = 600;
},
{
layerId = "B2FE45D6-EF48-417F-ACCD-B60D15D1CAF3";
width = 600;
},
{
layerId = "D92A4C0B-EB2A-4209-AFE3-2959A8B274DD";
shapes = (
{
closed = 1;
nodes = (
(507,0,l),
(507,687,l),
(444,687,l),
(444,389,l),
(157,389,l),
(157,687,l),
(93,687,l),
(93,0,l),
(157,0,l),
(157,337,l),
(444,337,l),
(444,0,l)
);
}
);
width = 600;
},
{
layerId = "B26C53A4-97D1-457B-8232-65310EC64496";
shapes = (
{
closed = 1;
nodes = (
(548,0,l),
(548,693,l),
(384,693,l),
(384,427,l),
(216,427,l),
(216,693,l),
(52,693,l),
(52,0,l),
(216,0,l),
(216,292,l),
(384,292,l),
(384,0,l)
);
}
);
width = 600;
}
);
script = math;
unicode = 120439;
},
{
category = Letter;
glyphname = u1D678;
lastChange = "2021-06-26 07:59:45 +0000";
layers = (
{
layerId = "D42A05F0-DBDC-4569-915A-03C7188507B6";
width = 600;
},
{
layerId = "B2FE45D6-EF48-417F-ACCD-B60D15D1CAF3";
width = 600;
},
{
layerId = "D92A4C0B-EB2A-4209-AFE3-2959A8B274DD";
shapes = (
{
closed = 1;
nodes = (
(112,687,l),
(112,633,l),
(268,633,l),
(268,55,l),
(112,55,l),
(112,0,l),
(489,0,l),
(489,55,l),
(333,55,l),
(333,633,l),
(489,633,l),
(489,687,l)
);
}
);
width = 600;
},
{
layerId = "B26C53A4-97D1-457B-8232-65310EC64496";
shapes = (
{
closed = 1;
nodes = (
(75,693,l),
(75,573,l),
(218,573,l),
(218,121,l),
(75,121,l),
(75,0,l),
(525,0,l),
(525,121,l),
(382,121,l),
(382,573,l),
(525,573,l),
(525,693,l)
);
}
);
width = 600;
}
);
script = math;
unicode = 120440;
},
{
category = Letter;
glyphname = u1D679;
lastChange = "2021-06-26 07:59:45 +0000";
layers = (
{
layerId = "D42A05F0-DBDC-4569-915A-03C7188507B6";
width = 600;
},
{
layerId = "B2FE45D6-EF48-417F-ACCD-B60D15D1CAF3";
width = 600;
},
{
layerId = "D92A4C0B-EB2A-4209-AFE3-2959A8B274DD";
shapes = (
{
closed = 1;
nodes = (
(223,687,l),
(223,631,l),
(424,631,l),
(424,230,ls),
(424,119,o),
(370,48,o),
(267,48,cs),
(230,48,o),
(177,57,o),
(114,96,c),
(83,52,l),
(136,11,o),
(204,-11,o),
(266,-11,cs),
(448,-11,o),
(488,122,o),
(488,223,cs),
(488,687,l)
);
}
);
width = 600;
},
{
layerId = "B26C53A4-97D1-457B-8232-65310EC64496";
shapes = (
{
closed = 1;
nodes = (
(151,693,l),
(151,573,l),
(364,573,l),
(364,248,ls),
(364,152,o),
(310,107,o),
(239,107,cs),
(186,107,o),
(149,119,o),
(102,151,c),
(39,50,l),
(99,9,o),
(159,-15,o),
(249,-15,cs),
(426,-15,o),
(527,88,o),
(527,250,cs),
(527,693,l)
);
}
);
width = 600;
}
);
script = math;
unicode = 120441;
},
{
category = Letter;
glyphname = u1D67A;
lastChange = "2021-06-26 07:59:45 +0000";
layers = (
{
layerId = "D42A05F0-DBDC-4569-915A-03C7188507B6";
width = 600;
},
{
layerId = "B2FE45D6-EF48-417F-ACCD-B60D15D1CAF3";
width = 600;
},
{
layerId = "D92A4C0B-EB2A-4209-AFE3-2959A8B274DD";
shapes = (
{
closed = 1;
nodes = (
(182,687,l),
(119,687,l),
(119,0,l),
(182,0,l)
);
},
{
closed = 1;
nodes = (
(497,0,l),
(580,0,l),
(271,371,l),
(561,687,l),
(483,687,l),
(187,367,l)
);
}
);
width = 600;
},
{
layerId = "B26C53A4-97D1-457B-8232-65310EC64496";
shapes = (
{
closed = 1;
nodes = (
(223,693,l),
(59,693,l),
(59,0,l),
(223,0,l)
);
},
{
closed = 1;
nodes = (
(419,0,l),
(609,0,l),
(394,382,l),
(590,693,l),
(418,693,l),
(228,370,l)
);
}
);
width = 600;
}
);
script = math;
unicode = 120442;
},
{
category = Letter;
glyphname = u1D67B;
lastChange = "2021-06-26 07:59:45 +0000";
layers = (
{
layerId = "D42A05F0-DBDC-4569-915A-03C7188507B6";
width = 600;
},
{
layerId = "B2FE45D6-EF48-417F-ACCD-B60D15D1CAF3";
width = 600;
},
{
layerId = "D92A4C0B-EB2A-4209-AFE3-2959A8B274DD";
shapes = (
{
closed = 1;
nodes = (
(523,0,l),
(531,62,l),
(212,62,l),
(212,687,l),
(148,687,l),
(148,0,l)
);
}
);
width = 600;
},
{
layerId = "B26C53A4-97D1-457B-8232-65310EC64496";
shapes = (
{
closed = 1;
nodes = (
(541,0,l),
(558,130,l),
(257,130,l),
(257,693,l),
(93,693,l),
(93,0,l)
);
}
);
width = 600;
}
);
script = math;
unicode = 120443;
},
{
category = Letter;
glyphname = u1D67C;
lastChange = "2021-06-26 07:59:45 +0000";
layers = (
{
layerId = "D42A05F0-DBDC-4569-915A-03C7188507B6";
width = 600;
},
{
layerId = "B2FE45D6-EF48-417F-ACCD-B60D15D1CAF3";
width = 600;
},
{
layerId = "D92A4C0B-EB2A-4209-AFE3-2959A8B274DD";
shapes = (
{
closed = 1;
nodes = (
(419,687,l),
(302,209,l),
(180,687,l),
(74,687,l),
(35,0,l),
(99,0,l),
(121,380,ls),
(126,459,o),
(125,602,o),
(125,626,c),
(262,125,l),
(338,125,l),
(465,626,l),
(466,602,o),
(469,470,o),
(475,379,cs),
(500,0,l),
(566,0,l),
(527,687,l)
);
}
);
width = 600;
},
{
layerId = "B26C53A4-97D1-457B-8232-65310EC64496";
shapes = (
{
closed = 1;
nodes = (
(375,693,l),
(302,245,l),
(225,693,l),
(57,693,l),
(18,0,l),
(158,0,l),
(163,294,ls),
(165,405,o),
(162,466,o),
(154,554,c),
(238,118,l),
(362,118,l),
(440,554,l),
(433,461,o),
(428,407,o),
(431,297,cs),
(440,0,l),
(583,0,l),
(544,693,l)
);
}
);
width = 600;
}
);
script = math;
unicode = 120444;
},
{
category = Letter;
glyphname = u1D67D;
lastChange = "2021-06-26 07:59:45 +0000";
layers = (
{
layerId = "D42A05F0-DBDC-4569-915A-03C7188507B6";
width = 600;
},
{
layerId = "B2FE45D6-EF48-417F-ACCD-B60D15D1CAF3";
width = 600;
},
{
layerId = "D92A4C0B-EB2A-4209-AFE3-2959A8B274DD";
shapes = (
{
closed = 1;
nodes = (
(507,0,l),
(507,687,l),
(444,687,l),
(444,319,ls),
(444,196,o),
(454,82,o),
(452,64,c),
(185,687,l),
(93,687,l),
(93,0,l),
(156,0,l),
(156,370,ls),
(156,472,o),
(147,599,o),
(149,620,c),
(409,0,l)
);
}
);
width = 600;
},
{
layerId = "B26C53A4-97D1-457B-8232-65310EC64496";
shapes = (
{
closed = 1;
nodes = (
(548,0,l),
(548,693,l),
(409,693,l),
(409,428,ls),
(409,303,o),
(423,202,o),
(434,139,c),
(257,693,l),
(52,693,l),
(52,0,l),
(192,0,l),
(192,262,ls),
(192,383,o),
(176,498,o),
(167,558,c),
(349,0,l)
);
}
);
width = 600;
}
);
script = math;
unicode = 120445;
},
{
category = Letter;
glyphname = u1D67E;
lastChange = "2021-06-26 07:59:45 +0000";
layers = (
{
layerId = "D42A05F0-DBDC-4569-915A-03C7188507B6";
width = 600;
},
{
layerId = "B2FE45D6-EF48-417F-ACCD-B60D15D1CAF3";
width = 600;
},
{
layerId = "D92A4C0B-EB2A-4209-AFE3-2959A8B274DD";
shapes = (
{
closed = 1;
nodes = (
(547,552,o),
(464,697,o),
(300,697,cs),
(137,697,o),
(54,547,o),
(54,341,cs),
(54,132,o),
(137,-10,o),
(300,-10,cs),
(464,-10,o),
(547,137,o),
(547,343,cs)
);
},
{
closed = 1;
nodes = (
(479,155,o),
(427,49,o),
(300,49,cs),
(177,49,o),
(122,154,o),
(122,341,cs),
(122,529,o),
(173,638,o),
(300,638,cs),
(428,638,o),
(479,530,o),
(479,343,cs)
);
}
);
width = 600;
},
{
layerId = "B26C53A4-97D1-457B-8232-65310EC64496";
shapes = (
{
closed = 1;
nodes = (
(578,572,o),
(482,711,o),
(300,711,cs),
(119,711,o),
(23,567,o),
(23,347,cs),
(23,122,o),
(119,-17,o),
(300,-17,cs),
(482,-17,o),
(578,127,o),
(578,347,cs)
);
},
{
closed = 1;
nodes = (
(410,179,o),
(380,103,o),
(300,103,cs),
(223,103,o),
(191,177,o),
(191,347,cs),
(191,517,o),
(222,591,o),
(300,591,cs),
(378,591,o),
(410,518,o),
(410,347,cs)
);
}
);
width = 600;
}
);
script = math;
unicode = 120446;
},
{
category = Letter;
glyphname = u1D67F;
lastChange = "2021-06-26 07:59:45 +0000";
layers = (
{
layerId = "D42A05F0-DBDC-4569-915A-03C7188507B6";
width = 600;
},
{
layerId = "B2FE45D6-EF48-417F-ACCD-B60D15D1CAF3";
width = 600;
},
{
layerId = "D92A4C0B-EB2A-4209-AFE3-2959A8B274DD";
shapes = (
{
closed = 1;
nodes = (
(481,350,o),
(404,319,o),
(301,319,cs),
(196,319,l),
(196,633,l),
(308,633,ls),
(404,633,o),
(481,595,o),
(481,479,cs)
);
},
{
closed = 1;
nodes = (
(551,622,o),
(452,687,o),
(295,687,cs),
(132,687,l),
(132,0,l),
(196,0,l),
(196,263,l),
(288,263,ls),
(440,263,o),
(551,319,o),
(551,480,cs)
);
}
);
width = 600;
},
{
layerId = "B26C53A4-97D1-457B-8232-65310EC64496";
shapes = (
{
closed = 1;
nodes = (
(408,386,o),
(364,350,o),
(291,350,cs),
(227,350,l),
(227,576,l),
(283,576,ls),
(366,576,o),
(408,541,o),
(408,467,cs)
);
},
{
closed = 1;
nodes = (
(577,619,o),
(469,693,o),
(281,693,cs),
(63,693,l),
(63,0,l),
(227,0,l),
(227,231,l),
(302,231,ls),
(466,231,o),
(577,307,o),
(577,468,cs)
);
}
);
width = 600;
}
);
script = math;
unicode = 120447;
},
{
category = Letter;
glyphname = u1D680;
lastChange = "2021-06-26 07:59:45 +0000";
layers = (
{
layerId = "D42A05F0-DBDC-4569-915A-03C7188507B6";
width = 600;
},
{
layerId = "B2FE45D6-EF48-417F-ACCD-B60D15D1CAF3";
width = 600;
},
{
layerId = "D92A4C0B-EB2A-4209-AFE3-2959A8B274DD";
shapes = (
{
closed = 1;
nodes = (
(548,552,o),
(462,697,o),
(299,697,cs),
(136,697,o),
(50,547,o),
(50,341,cs),
(50,132,o),
(136,-8,o),
(290,-8,cs),
(408,-8,o),
(461,-66,o),
(502,-173,c),
(580,-140,l),
(548,-43,o),
(499,4,o),
(406,23,c),
(510,82,o),
(548,194,o),
(548,343,cs)
);
},
{
closed = 1;
nodes = (
(482,155,o),
(425,49,o),
(299,49,cs),
(175,49,o),
(116,154,o),
(116,341,cs),
(116,530,o),
(171,638,o),
(299,638,cs),
(426,638,o),
(482,531,o),
(482,343,cs)
);
}
);
width = 600;
},
{
layerId = "B26C53A4-97D1-457B-8232-65310EC64496";
shapes = (
{
closed = 1;
nodes = (
(575,572,o),
(485,711,o),
(303,711,cs),
(122,711,o),
(33,567,o),
(33,347,cs),
(33,122,o),
(117,-14,o),
(290,-14,cs),
(411,-14,o),
(456,-69,o),
(500,-173,c),
(634,-128,l),
(596,-16,o),
(537,22,o),
(429,40,c),
(539,96,o),
(575,211,o),
(575,347,cs)
);
},
{
closed = 1;
nodes = (
(404,179,o),
(383,103,o),
(303,103,cs),
(226,103,o),
(202,178,o),
(202,347,cs),
(202,516,o),
(225,590,o),
(303,590,cs),
(382,590,o),
(404,517,o),
(404,347,cs)
);
}
);
width = 600;
}
);
script = math;
unicode = 120448;
},
{
category = Letter;
glyphname = u1D681;
lastChange = "2021-06-26 07:59:45 +0000";
layers = (
{
layerId = "D42A05F0-DBDC-4569-915A-03C7188507B6";
width = 600;
},
{
layerId = "B2FE45D6-EF48-417F-ACCD-B60D15D1CAF3";
width = 600;
},
{
layerId = "D92A4C0B-EB2A-4209-AFE3-2959A8B274DD";
shapes = (
{
closed = 1;
nodes = (
(531,622,o),
(444,687,o),
(279,687,cs),
(115,687,l),
(115,0,l),
(179,0,l),
(179,305,l),
(286,305,l),
(485,0,l),
(565,0,l),
(354,310,l),
(454,330,o),
(531,395,o),
(531,500,cs)
);
},
{
closed = 1;
nodes = (
(460,398,o),
(398,360,o),
(290,360,cs),
(179,360,l),
(179,632,l),
(292,632,ls),
(407,632,o),
(460,594,o),
(460,500,cs)
);
}
);
width = 600;
},
{
layerId = "B26C53A4-97D1-457B-8232-65310EC64496";
shapes = (
{
closed = 1;
nodes = (
(562,626,o),
(465,693,o),
(276,693,cs),
(58,693,l),
(58,0,l),
(222,0,l),
(222,265,l),
(269,265,l),
(419,0,l),
(604,0,l),
(423,293,l),
(500,323,o),
(562,383,o),
(562,483,cs)
);
},
{
closed = 1;
nodes = (
(393,409,o),
(354,378,o),
(283,378,cs),
(222,378,l),
(222,578,l),
(277,578,ls),
(353,578,o),
(393,549,o),
(393,483,cs)
);
}
);
width = 600;
}
);
script = math;
unicode = 120449;
},
{
category = Letter;
glyphname = u1D682;
lastChange = "2021-06-26 07:59:45 +0000";
layers = (
{
layerId = "D42A05F0-DBDC-4569-915A-03C7188507B6";
width = 600;
},
{
layerId = "B2FE45D6-EF48-417F-ACCD-B60D15D1CAF3";
width = 600;
},
{
layerId = "D92A4C0B-EB2A-4209-AFE3-2959A8B274DD";
shapes = (
{
closed = 1;
nodes = (
(527,320,o),
(429,362,o),
(329,390,cs),
(191,430,o),
(146,462,o),
(146,527,cs),
(146,602,o),
(214,638,o),
(293,638,cs),
(352,638,o),
(412,619,o),
(462,574,c),
(505,621,l),
(448,670,o),
(385,697,o),
(293,697,cs),
(165,697,o),
(82,623,o),
(82,527,cs),
(82,416,o),
(175,370,o),
(303,333,cs),
(428,296,o),
(461,260,o),
(461,189,cs),
(461,93,o),
(376,49,o),
(288,49,cs),
(201,49,o),
(142,78,o),
(95,123,c),
(53,75,l),
(111,19,o),
(193,-10,o),
(285,-10,cs),
(440,-10,o),
(527,72,o),
(527,187,cs)
);
}
);
width = 600;
},
{
layerId = "B26C53A4-97D1-457B-8232-65310EC64496";
shapes = (
{
closed = 1;
nodes = (
(568,330,o),
(491,386,o),
(360,426,cs),
(249,461,o),
(218,478,o),
(218,522,cs),
(218,567,o),
(259,590,o),
(322,590,cs),
(378,590,o),
(433,571,o),
(480,532,c),
(557,621,l),
(497,678,o),
(416,711,o),
(309,711,cs),
(165,711,o),
(48,637,o),
(48,510,cs),
(48,404,o),
(110,343,o),
(272,293,cs),
(368,264,o),
(398,241,o),
(398,190,cs),
(398,136,o),
(351,105,o),
(282,105,cs),
(208,105,o),
(146,130,o),
(95,175,c),
(12,83,l),
(70,26,o),
(155,-17,o),
(286,-17,cs),
(463,-17,o),
(568,73,o),
(568,203,cs)
);
}
);
width = 600;
}
);
script = math;
unicode = 120450;
},
{
category = Letter;
glyphname = u1D683;
lastChange = "2021-06-26 07:59:45 +0000";
layers = (
{
layerId = "D42A05F0-DBDC-4569-915A-03C7188507B6";
width = 600;
},
{
layerId = "B2FE45D6-EF48-417F-ACCD-B60D15D1CAF3";
width = 600;
},
{
layerId = "D92A4C0B-EB2A-4209-AFE3-2959A8B274DD";
shapes = (
{
closed = 1;
nodes = (
(546,628,l),
(553,687,l),
(45,687,l),
(45,628,l),
(267,628,l),
(267,0,l),
(330,0,l),
(330,628,l)
);
}
);
width = 600;
},
{
layerId = "B26C53A4-97D1-457B-8232-65310EC64496";
shapes = (
{
closed = 1;
nodes = (
(567,568,l),
(584,693,l),
(23,693,l),
(23,568,l),
(217,568,l),
(217,0,l),
(381,0,l),
(381,568,l)
);
}
);
width = 600;
}
);
script = math;
unicode = 120451;
},
{
category = Letter;
glyphname = u1D684;
lastChange = "2021-06-26 07:59:45 +0000";
layers = (
{
layerId = "D42A05F0-DBDC-4569-915A-03C7188507B6";
width = 600;
},
{
layerId = "B2FE45D6-EF48-417F-ACCD-B60D15D1CAF3";
width = 600;
},
{
layerId = "D92A4C0B-EB2A-4209-AFE3-2959A8B274DD";
shapes = (
{
closed = 1;
nodes = (
(454,687,l),
(454,199,ls),
(454,100,o),
(392,51,o),
(299,51,cs),
(207,51,o),
(145,100,o),
(145,199,cs),
(145,687,l),
(82,687,l),
(82,221,ls),
(82,84,o),
(167,-10,o),
(299,-10,cs),
(429,-10,o),
(519,82,o),
(519,221,cs),
(519,687,l)
);
}
);
width = 600;
},
{
layerId = "B26C53A4-97D1-457B-8232-65310EC64496";
shapes = (
{
closed = 1;
nodes = (
(394,693,l),
(394,293,ls),
(394,169,o),
(380,105,o),
(300,105,cs),
(221,105,o),
(207,169,o),
(207,293,cs),
(207,693,l),
(42,693,l),
(42,232,ls),
(42,84,o),
(127,-17,o),
(300,-17,cs),
(472,-17,o),
(558,90,o),
(558,232,cs),
(558,693,l)
);
}
);
width = 600;
}
);
script = math;
unicode = 120452;
},
{
category = Letter;
glyphname = u1D685;
lastChange = "2021-06-26 07:59:45 +0000";
layers = (
{
layerId = "D42A05F0-DBDC-4569-915A-03C7188507B6";
width = 600;
},
{
layerId = "B2FE45D6-EF48-417F-ACCD-B60D15D1CAF3";
width = 600;
},
{
layerId = "D92A4C0B-EB2A-4209-AFE3-2959A8B274DD";
shapes = (
{
closed = 1;
nodes = (
(102,687,l),
(32,687,l),
(272,0,l),
(328,0,l),
(568,687,l),
(504,687,l),
(302,90,l)
);
}
);
width = 600;
},
{
layerId = "B26C53A4-97D1-457B-8232-65310EC64496";
shapes = (
{
closed = 1;
nodes = (
(174,693,l),
(-1,693,l),
(199,0,l),
(402,0,l),
(602,693,l),
(434,693,l),
(303,128,l)
);
}
);
width = 600;
}
);
script = math;
unicode = 120453;
},
{
category = Letter;
glyphname = u1D686;
lastChange = "2021-06-26 07:59:45 +0000";
layers = (
{
layerId = "D42A05F0-DBDC-4569-915A-03C7188507B6";
width = 600;
},
{
layerId = "B2FE45D6-EF48-417F-ACCD-B60D15D1CAF3";
width = 600;
},
{
layerId = "D92A4C0B-EB2A-4209-AFE3-2959A8B274DD";
shapes = (
{
closed = 1;
nodes = (
(531,687,l),
(435,82,l),
(349,607,l),
(253,607,l),
(163,82,l),
(74,687,l),
(7,687,l),
(110,0,l),
(210,0,l),
(297,527,l),
(384,0,l),
(481,0,l),
(593,687,l)
);
}
);
width = 600;
},
{
layerId = "B26C53A4-97D1-457B-8232-65310EC64496";
shapes = (
{
closed = 1;
nodes = (
(461,693,l),
(426,140,l),
(373,613,l),
(232,613,l),
(174,140,l),
(151,693,l),
(-3,693,l),
(72,0,l),
(246,0,l),
(301,496,l),
(352,0,l),
(522,0,l),
(603,693,l)
);
}
);
width = 600;
}
);
script = math;
unicode = 120454;
},
{
category = Letter;
glyphname = u1D687;
lastChange = "2021-06-26 07:59:45 +0000";
layers = (
{
layerId = "D42A05F0-DBDC-4569-915A-03C7188507B6";
width = 600;
},
{
layerId = "B2FE45D6-EF48-417F-ACCD-B60D15D1CAF3";
width = 600;
},
{
layerId = "D92A4C0B-EB2A-4209-AFE3-2959A8B274DD";
shapes = (
{
closed = 1;
nodes = (
(261,367,l),
(39,0,l),
(109,0,l),
(298,325,l),
(484,0,l),
(561,0,l),
(337,371,l),
(535,687,l),
(465,687,l),
(300,410,l),
(135,687,l),
(59,687,l)
);
}
);
width = 600;
},
{
layerId = "B26C53A4-97D1-457B-8232-65310EC64496";
shapes = (
{
closed = 1;
nodes = (
(201,368,l),
(4,0,l),
(178,0,l),
(298,265,l),
(421,0,l),
(597,0,l),
(396,375,l),
(580,693,l),
(407,693,l),
(300,471,l),
(196,693,l),
(19,693,l)
);
}
);
width = 600;
}
);
script = math;
unicode = 120455;
},
{
category = Letter;
glyphname = u1D688;
lastChange = "2021-06-26 07:59:45 +0000";
layers = (
{
layerId = "D42A05F0-DBDC-4569-915A-03C7188507B6";
width = 600;
},
{
layerId = "B2FE45D6-EF48-417F-ACCD-B60D15D1CAF3";
width = 600;
},
{
layerId = "D92A4C0B-EB2A-4209-AFE3-2959A8B274DD";
shapes = (
{
closed = 1;
nodes = (
(567,687,l),
(502,687,l),
(302,329,l),
(104,687,l),
(33,687,l),
(268,266,l),
(268,0,l),
(333,0,l),
(333,267,l)
);
}
);
width = 600;
},
{
layerId = "B26C53A4-97D1-457B-8232-65310EC64496";
shapes = (
{
closed = 1;
nodes = (
(608,693,l),
(436,693,l),
(303,395,l),
(172,693,l),
(-8,693,l),
(218,259,l),
(218,0,l),
(382,0,l),
(382,260,l)
);
}
);
width = 600;
}
);
script = math;
unicode = 120456;
},
{
category = Letter;
glyphname = u1D689;
lastChange = "2021-06-26 07:59:45 +0000";
layers = (
{
layerId = "D42A05F0-DBDC-4569-915A-03C7188507B6";
width = 600;
},
{
layerId = "B2FE45D6-EF48-417F-ACCD-B60D15D1CAF3";
width = 600;
},
{
layerId = "D92A4C0B-EB2A-4209-AFE3-2959A8B274DD";
shapes = (
{
closed = 1;
nodes = (
(521,632,l),
(521,687,l),
(117,687,l),
(117,629,l),
(456,629,l),
(81,55,l),
(81,0,l),
(509,0,l),
(517,59,l),
(148,59,l)
);
}
);
width = 600;
},
{
layerId = "B26C53A4-97D1-457B-8232-65310EC64496";
shapes = (
{
closed = 1;
nodes = (
(555,570,l),
(555,693,l),
(75,693,l),
(75,567,l),
(368,567,l),
(39,123,l),
(39,0,l),
(545,0,l),
(562,131,l),
(232,131,l)
);
}
);
width = 600;
}
);
script = math;
unicode = 120457;
},
{
category = Letter;
glyphname = u1D68A;
lastChange = "2021-06-26 07:59:45 +0000";
layers = (
{
layerId = "D42A05F0-DBDC-4569-915A-03C7188507B6";
width = 600;
},
{
layerId = "B2FE45D6-EF48-417F-ACCD-B60D15D1CAF3";
width = 600;
},
{
layerId = "D92A4C0B-EB2A-4209-AFE3-2959A8B274DD";
shapes = (
{
closed = 1;
nodes = (
(466,370,ls),
(466,469,o),
(402,535,o),
(279,535,cs),
(231,535,o),
(181,527,o),
(118,503,c),
(136,452,l),
(190,472,o),
(235,479,o),
(270,479,cs),
(351,479,o),
(402,450,o),
(402,368,cs),
(402,317,l),
(322,317,ls),
(164,317,o),
(79,258,o),
(79,152,cs),
(79,54,o),
(142,-10,o),
(246,-10,cs),
(315,-10,o),
(371,16,o),
(408,65,c),
(420,17,o),
(454,-5,o),
(494,-11,c),
(511,35,l),
(481,44,o),
(466,61,o),
(466,104,cs)
);
},
{
closed = 1;
nodes = (
(182,40,o),
(147,77,o),
(147,150,cs),
(147,222,o),
(190,269,o),
(315,269,cs),
(402,269,l),
(402,119,l),
(367,69,o),
(315,40,o),
(258,40,cs)
);
}
);
width = 600;
},
{
layerId = "B26C53A4-97D1-457B-8232-65310EC64496";
shapes = (
{
closed = 1;
nodes = (
(517,361,ls),
(517,483,o),
(443,549,o),
(285,549,cs),
(226,549,o),
(147,535,o),
(78,509,c),
(115,404,l),
(168,422,o),
(226,432,o),
(260,432,cs),
(329,432,o),
(365,406,o),
(365,351,cs),
(365,331,l),
(294,331,ls),
(130,331,o),
(35,265,o),
(35,150,cs),
(35,52,o),
(105,-17,o),
(215,-17,cs),
(281,-17,o),
(349,6,o),
(390,55,c),
(414,11,o),
(457,-9,o),
(520,-15,c),
(552,89,l),
(527,98,o),
(517,113,o),
(517,153,cs)
);
},
{
closed = 1;
nodes = (
(224,96,o),
(198,120,o),
(198,161,cs),
(198,213,o),
(238,241,o),
(326,241,cs),
(365,241,l),
(365,155,l),
(346,117,o),
(303,96,o),
(269,96,cs)
);
}
);
width = 600;
}
);
script = math;
unicode = 120458;
},
{
category = Letter;
glyphname = u1D68B;
lastChange = "2021-06-26 07:59:45 +0000";
layers = (
{
layerId = "D42A05F0-DBDC-4569-915A-03C7188507B6";
width = 600;
},
{
layerId = "B2FE45D6-EF48-417F-ACCD-B60D15D1CAF3";
width = 600;
},
{
layerId = "D92A4C0B-EB2A-4209-AFE3-2959A8B274DD";
shapes = (
{
closed = 1;
nodes = (
(172,746,l),
(110,738,l),
(110,0,l),
(164,0,l),
(170,57,l),
(206,11,o),
(253,-10,o),
(317,-10,cs),
(452,-10,o),
(524,105,o),
(524,263,cs),
(524,426,o),
(468,535,o),
(326,535,cs),
(264,535,o),
(212,505,o),
(172,453,c)
);
},
{
closed = 1;
nodes = (
(251,44,o),
(202,73,o),
(172,118,c),
(172,390,l),
(202,434,o),
(252,482,o),
(317,482,cs),
(408,482,o),
(454,403,o),
(454,264,cs),
(454,117,o),
(400,44,o),
(303,44,cs)
);
}
);
width = 600;
},
{
layerId = "B26C53A4-97D1-457B-8232-65310EC64496";
shapes = (
{
closed = 1;
nodes = (
(228,759,l),
(70,742,l),
(70,0,l),
(210,0,l),
(216,48,l),
(247,6,o),
(294,-17,o),
(348,-17,cs),
(486,-17,o),
(560,103,o),
(560,267,cs),
(560,440,o),
(501,549,o),
(364,549,cs),
(310,549,o),
(261,521,o),
(228,477,c)
);
},
{
closed = 1;
nodes = (
(272,98,o),
(248,115,o),
(228,147,c),
(228,371,l),
(251,409,o),
(279,432,o),
(314,432,cs),
(364,432,o),
(397,397,o),
(397,265,cs),
(397,146,o),
(362,98,o),
(306,98,cs)
);
}
);
width = 600;
}
);
script = math;
unicode = 120459;
},
{
category = Letter;
glyphname = u1D68C;
lastChange = "2021-06-26 07:59:45 +0000";
layers = (
{
layerId = "D42A05F0-DBDC-4569-915A-03C7188507B6";
width = 600;
},
{
layerId = "B2FE45D6-EF48-417F-ACCD-B60D15D1CAF3";
width = 600;
},
{
layerId = "D92A4C0B-EB2A-4209-AFE3-2959A8B274DD";
shapes = (
{
closed = 1;
nodes = (
(238,47,o),
(168,114,o),
(168,261,cs),
(168,406,o),
(238,480,o),
(335,480,cs),
(382,480,o),
(428,463,o),
(475,431,c),
(508,475,l),
(459,515,o),
(401,535,o),
(338,535,cs),
(184,535,o),
(99,417,o),
(99,261,cs),
(99,96,o),
(184,-10,o),
(337,-10,cs),
(393,-10,o),
(464,13,o),
(510,52,c),
(477,94,l),
(438,66,o),
(391,47,o),
(335,47,cs)
);
}
);
width = 600;
},
{
layerId = "B26C53A4-97D1-457B-8232-65310EC64496";
shapes = (
{
closed = 1;
nodes = (
(284,108,o),
(234,145,o),
(234,262,cs),
(234,382,o),
(281,427,o),
(353,427,cs),
(396,427,o),
(436,412,o),
(472,387,c),
(541,482,l),
(488,526,o),
(427,549,o),
(346,549,cs),
(175,549,o),
(69,428,o),
(69,262,cs),
(69,96,o),
(172,-17,o),
(343,-17,cs),
(426,-17,o),
(494,13,o),
(541,53,c),
(470,153,l),
(432,127,o),
(395,108,o),
(352,108,cs)
);
}
);
width = 600;
}
);
script = math;
unicode = 120460;
},
{
category = Letter;
glyphname = u1D68D;
lastChange = "2021-06-26 07:59:45 +0000";
layers = (
{
layerId = "D42A05F0-DBDC-4569-915A-03C7188507B6";
width = 600;
},
{
layerId = "B2FE45D6-EF48-417F-ACCD-B60D15D1CAF3";
width = 600;
},
{
layerId = "D92A4C0B-EB2A-4209-AFE3-2959A8B274DD";
shapes = (
{
closed = 1;
nodes = (
(429,469,l),
(393,512,o),
(346,535,o),
(282,535,cs),
(152,535,o),
(77,418,o),
(77,261,cs),
(77,101,o),
(140,-10,o),
(279,-10,cs),
(333,-10,o),
(387,13,o),
(429,73,c),
(437,0,l),
(491,0,l),
(491,738,l),
(429,746,l)
);
},
{
closed = 1;
nodes = (
(351,481,o),
(398,454,o),
(429,407,c),
(429,134,l),
(399,89,o),
(353,44,o),
(287,44,cs),
(194,44,o),
(147,124,o),
(147,262,cs),
(147,407,o),
(200,481,o),
(297,481,cs)
);
}
);
width = 600;
},
{
layerId = "B26C53A4-97D1-457B-8232-65310EC64496";
shapes = (
{
closed = 1;
nodes = (
(372,500,l),
(340,532,o),
(299,549,o),
(252,549,cs),
(121,549,o),
(40,431,o),
(40,267,cs),
(40,96,o),
(103,-17,o),
(235,-17,cs),
(305,-17,o),
(353,17,o),
(382,59,c),
(390,0,l),
(530,0,l),
(530,742,l),
(372,759,l)
);
},
{
closed = 1;
nodes = (
(327,433,o),
(350,417,o),
(372,390,c),
(372,161,l),
(349,123,o),
(321,99,o),
(285,99,cs),
(237,99,o),
(203,135,o),
(203,266,cs),
(203,386,o),
(239,433,o),
(294,433,cs)
);
}
);
width = 600;
}
);
script = math;
unicode = 120461;
},
{
category = Letter;
glyphname = u1D68E;
lastChange = "2021-06-26 07:59:45 +0000";
layers = (
{
layerId = "D42A05F0-DBDC-4569-915A-03C7188507B6";
width = 600;
},
{
layerId = "B2FE45D6-EF48-417F-ACCD-B60D15D1CAF3";
width = 600;
},
{
layerId = "D92A4C0B-EB2A-4209-AFE3-2959A8B274DD";
shapes = (
{
closed = 1;
nodes = (
(512,238,l),
(512,248,o),
(513,263,o),
(513,281,cs),
(513,437,o),
(437,535,o),
(310,535,cs),
(178,535,o),
(88,422,o),
(88,262,cs),
(88,99,o),
(174,-10,o),
(319,-10,cs),
(377,-10,o),
(442,12,o),
(491,49,c),
(458,96,l),
(411,63,o),
(372,47,o),
(317,47,cs),
(231,47,o),
(157,106,o),
(155,238,c)
);
},
{
closed = 1;
nodes = (
(394,477,o),
(452,417,o),
(454,294,c),
(156,294,l),
(163,418,o),
(226,477,o),
(311,477,cs)
);
}
);
width = 600;
},
{
layerId = "B26C53A4-97D1-457B-8232-65310EC64496";
shapes = (
{
closed = 1;
nodes = (
(551,220,l),
(553,236,o),
(554,258,o),
(554,276,cs),
(554,447,o),
(457,549,o),
(305,549,cs),
(138,549,o),
(46,422,o),
(46,265,cs),
(46,100,o),
(140,-17,o),
(322,-17,cs),
(413,-17,o),
(484,13,o),
(534,56,c),
(471,142,l),
(429,115,o),
(383,98,o),
(335,98,cs),
(267,98,o),
(218,133,o),
(207,220,c)
);
},
{
closed = 1;
nodes = (
(373,443,o),
(399,392,o),
(400,315,c),
(205,315,l),
(212,404,o),
(249,443,o),
(305,443,cs)
);
}
);
width = 600;
}
);
script = math;
unicode = 120462;
},
{
category = Letter;
glyphname = u1D68F;
lastChange = "2021-06-26 07:59:45 +0000";
layers = (
{
layerId = "D42A05F0-DBDC-4569-915A-03C7188507B6";
width = 600;
},
{
layerId = "B2FE45D6-EF48-417F-ACCD-B60D15D1CAF3";
width = 600;
},
{
layerId = "D92A4C0B-EB2A-4209-AFE3-2959A8B274DD";
shapes = (
{
closed = 1;
nodes = (
(314,746,o),
(229,691,o),
(229,596,cs),
(229,482,l),
(99,482,l),
(99,429,l),
(229,429,l),
(229,0,l),
(291,0,l),
(291,429,l),
(465,429,l),
(472,482,l),
(291,482,l),
(291,600,ls),
(291,661,o),
(332,692,o),
(409,692,cs),
(450,692,o),
(489,684,o),
(521,669,c),
(544,719,l),
(504,737,o),
(463,746,o),
(413,746,cs)
);
}
);
width = 600;
},
{
layerId = "B26C53A4-97D1-457B-8232-65310EC64496";
shapes = (
{
closed = 1;
nodes = (
(264,759,o),
(188,679,o),
(188,575,cs),
(188,498,l),
(77,498,l),
(77,388,l),
(188,388,l),
(188,0,l),
(345,0,l),
(345,388,l),
(501,388,l),
(518,498,l),
(345,498,l),
(345,569,ls),
(345,621,o),
(370,642,o),
(433,642,cs),
(471,642,o),
(510,636,o),
(547,622,c),
(590,725,l),
(543,745,o),
(486,759,o),
(408,759,cs)
);
}
);
width = 600;
}
);
script = math;
unicode = 120463;
},
{
category = Letter;
glyphname = u1D690;
lastChange = "2021-06-26 07:59:45 +0000";
layers = (
{
layerId = "D42A05F0-DBDC-4569-915A-03C7188507B6";
width = 600;
},
{
layerId = "B2FE45D6-EF48-417F-ACCD-B60D15D1CAF3";
width = 600;
},
{
layerId = "D92A4C0B-EB2A-4209-AFE3-2959A8B274DD";
shapes = (
{
closed = 1;
nodes = (
(464,549,o),
(425,537,o),
(288,535,cs),
(168,535,o),
(86,458,o),
(86,356,cs),
(86,288,o),
(114,243,o),
(172,212,c),
(134,187,o),
(115,155,o),
(115,123,cs),
(115,72,o),
(154,26,o),
(238,26,cs),
(335,26,ls),
(407,26,o),
(466,-2,o),
(466,-57,cs),
(466,-122,o),
(407,-152,o),
(286,-152,cs),
(163,-152,o),
(133,-120,o),
(133,-54,c),
(76,-54,l),
(76,-162,o),
(131,-209,o),
(288,-209,cs),
(440,-209,o),
(530,-155,o),
(530,-53,cs),
(530,26,o),
(450,87,o),
(349,87,cs),
(252,87,ls),
(196,87,o),
(178,107,o),
(178,134,cs),
(178,157,o),
(191,179,o),
(208,192,c),
(231,184,o),
(252,180,o),
(292,180,cs),
(412,180,o),
(482,255,o),
(482,360,cs),
(482,417,o),
(453,463,o),
(393,491,c),
(450,491,o),
(500,491,o),
(548,505,c),
(525,573,l)
);
},
{
closed = 1;
nodes = (
(371,486,o),
(414,440,o),
(414,355,cs),
(414,273,o),
(370,223,o),
(289,223,cs),
(192,223,o),
(150,280,o),
(150,355,cs),
(150,430,o),
(191,486,o),
(286,486,cs)
);
}
);
width = 600;
},
{
layerId = "B26C53A4-97D1-457B-8232-65310EC64496";
shapes = (
{
closed = 1;
nodes = (
(478,579,o),
(411,545,o),
(292,548,cs),
(154,548,o),
(55,474,o),
(55,354,cs),
(55,285,o),
(82,238,o),
(150,202,c),
(112,178,o),
(90,141,o),
(90,102,cs),
(90,45,o),
(139,-5,o),
(254,-5,cs),
(338,-5,ls),
(392,-5,o),
(415,-26,o),
(415,-57,cs),
(415,-92,o),
(393,-118,o),
(292,-118,cs),
(192,-118,o),
(171,-98,o),
(171,-51,c),
(31,-51,l),
(31,-156,o),
(84,-222,o),
(288,-222,cs),
(476,-222,o),
(572,-155,o),
(572,-46,cs),
(572,43,o),
(493,108,o),
(370,108,cs),
(283,108,ls),
(232,108,o),
(224,124,o),
(224,140,cs),
(224,152,o),
(230,165,o),
(242,171,c),
(261,167,o),
(281,165,o),
(303,165,cs),
(441,165,o),
(528,240,o),
(528,343,cs),
(528,411,o),
(492,451,o),
(426,479,c),
(492,479,o),
(541,485,o),
(579,500,c),
(542,616,l)
);
},
{
closed = 1;
nodes = (
(350,445,o),
(377,418,o),
(377,358,cs),
(377,297,o),
(349,265,o),
(296,265,cs),
(247,265,o),
(215,298,o),
(215,356,cs),
(215,412,o),
(246,445,o),
(296,445,cs)
);
}
);
width = 600;
}
);
script = math;
unicode = 120464;
},
{
category = Letter;
glyphname = u1D691;
lastChange = "2021-06-26 07:59:45 +0000";
layers = (
{
layerId = "D42A05F0-DBDC-4569-915A-03C7188507B6";
width = 600;
},
{
layerId = "B2FE45D6-EF48-417F-ACCD-B60D15D1CAF3";
width = 600;
},
{
layerId = "D92A4C0B-EB2A-4209-AFE3-2959A8B274DD";
shapes = (
{
closed = 1;
nodes = (
(110,736,l),
(110,0,l),
(172,0,l),
(172,389,l),
(199,430,o),
(259,483,o),
(327,483,cs),
(397,483,o),
(430,454,o),
(430,391,cs),
(430,0,l),
(492,0,l),
(492,380,ls),
(492,477,o),
(449,535,o),
(343,535,cs),
(280,535,o),
(212,505,o),
(172,448,c),
(172,744,l)
);
}
);
width = 600;
},
{
layerId = "B26C53A4-97D1-457B-8232-65310EC64496";
shapes = (
{
closed = 1;
nodes = (
(70,742,l),
(70,0,l),
(228,0,l),
(228,368,l),
(258,408,o),
(288,432,o),
(321,432,cs),
(360,432,o),
(372,410,o),
(372,346,cs),
(372,0,l),
(530,0,l),
(530,390,ls),
(530,491,o),
(479,549,o),
(384,549,cs),
(325,549,o),
(273,526,o),
(228,479,c),
(228,758,l)
);
}
);
width = 600;
}
);
script = math;
unicode = 120465;
},
{
category = Letter;
glyphname = u1D692;
lastChange = "2021-06-26 07:59:45 +0000";
layers = (
{
layerId = "D42A05F0-DBDC-4569-915A-03C7188507B6";
width = 600;
},
{
layerId = "B2FE45D6-EF48-417F-ACCD-B60D15D1CAF3";
width = 600;
},
{
layerId = "D92A4C0B-EB2A-4209-AFE3-2959A8B274DD";
shapes = (
{
closed = 1;
nodes = (
(136,525,l),
(136,471,l),
(297,471,l),
(297,54,l),
(131,54,l),
(131,0,l),
(512,0,l),
(512,54,l),
(359,54,l),
(359,525,l)
);
},
{
closed = 1;
nodes = (
(271,763,o),
(250,741,o),
(250,713,cs),
(250,684,o),
(271,662,o),
(301,662,cs),
(333,662,o),
(353,684,o),
(353,713,cs),
(353,741,o),
(333,763,o),
(301,763,cs)
);
}
);
width = 600;
},
{
layerId = "B26C53A4-97D1-457B-8232-65310EC64496";
shapes = (
{
closed = 1;
nodes = (
(91,531,l),
(91,423,l),
(237,423,l),
(237,108,l),
(86,108,l),
(86,0,l),
(530,0,l),
(530,108,l),
(395,108,l),
(395,531,l)
);
},
{
closed = 1;
nodes = (
(244,809,o),
(205,771,o),
(205,720,cs),
(205,670,o),
(244,631,o),
(299,631,cs),
(354,631,o),
(392,670,o),
(392,720,cs),
(392,771,o),
(354,809,o),
(299,809,cs)
);
}
);
width = 600;
}
);
script = math;
unicode = 120466;
},
{
category = Letter;
glyphname = u1D693;
lastChange = "2021-06-26 07:59:45 +0000";
layers = (
{
layerId = "D42A05F0-DBDC-4569-915A-03C7188507B6";
width = 600;
},
{
layerId = "B2FE45D6-EF48-417F-ACCD-B60D15D1CAF3";
width = 600;
},
{
layerId = "D92A4C0B-EB2A-4209-AFE3-2959A8B274DD";
shapes = (
{
closed = 1;
nodes = (
(148,525,l),
(148,471,l),
(375,471,l),
(375,60,ls),
(375,-78,o),
(258,-138,o),
(104,-161,c),
(114,-209,l),
(316,-178,o),
(437,-96,o),
(437,64,cs),
(437,525,l)
);
},
{
closed = 1;
nodes = (
(336,763,o),
(316,741,o),
(316,713,cs),
(316,684,o),
(336,662,o),
(366,662,cs),
(398,662,o),
(418,684,o),
(418,713,cs),
(418,741,o),
(398,763,o),
(366,763,cs)
);
}
);
width = 600;
},
{
layerId = "B26C53A4-97D1-457B-8232-65310EC64496";
shapes = (
{
closed = 1;
nodes = (
(124,531,l),
(124,423,l),
(315,423,l),
(315,144,ls),
(315,-11,o),
(231,-65,o),
(70,-101,c),
(95,-222,l),
(343,-173,o),
(473,-77,o),
(473,154,cs),
(473,531,l)
);
},
{
closed = 1;
nodes = (
(315,809,o),
(276,771,o),
(276,720,cs),
(276,670,o),
(315,631,o),
(370,631,cs),
(425,631,o),
(463,670,o),
(463,720,cs),
(463,771,o),
(425,809,o),
(370,809,cs)
);
}
);
width = 600;
}
);
script = math;
unicode = 120467;
},
{
category = Letter;
glyphname = u1D694;
lastChange = "2021-06-26 07:59:45 +0000";
layers = (
{
layerId = "D42A05F0-DBDC-4569-915A-03C7188507B6";
width = 600;
},
{
layerId = "B2FE45D6-EF48-417F-ACCD-B60D15D1CAF3";
width = 600;
},
{
layerId = "D92A4C0B-EB2A-4209-AFE3-2959A8B274DD";
shapes = (
{
closed = 1;
nodes = (
(440,525,l),
(189,287,l),
(474,0,l),
(563,0,l),
(277,288,l),
(532,525,l)
);
},
{
closed = 1;
nodes = (
(117,738,l),
(117,0,l),
(179,0,l),
(179,746,l)
);
}
);
width = 600;
},
{
layerId = "B26C53A4-97D1-457B-8232-65310EC64496";
shapes = (
{
closed = 1;
nodes = (
(409,531,l),
(234,291,l),
(409,0,l),
(589,0,l),
(400,296,l),
(574,531,l)
);
},
{
closed = 1;
nodes = (
(70,742,l),
(70,0,l),
(228,0,l),
(228,759,l)
);
}
);
width = 600;
}
);
script = math;
unicode = 120468;
},
{
category = Letter;
glyphname = u1D695;
lastChange = "2021-06-26 07:59:45 +0000";
layers = (
{
layerId = "D42A05F0-DBDC-4569-915A-03C7188507B6";
width = 600;
},
{
layerId = "B2FE45D6-EF48-417F-ACCD-B60D15D1CAF3";
width = 600;
},
{
layerId = "D92A4C0B-EB2A-4209-AFE3-2959A8B274DD";
shapes = (
{
closed = 1;
nodes = (
(68,738,l),
(68,684,l),
(231,684,l),
(231,119,ls),
(231,37,o),
(297,-10,o),
(380,-10,cs),
(429,-10,o),
(470,2,o),
(496,15,c),
(478,63,l),
(448,51,o),
(419,44,o),
(386,44,cs),
(332,44,o),
(293,65,o),
(293,119,cs),
(293,738,l)
);
}
);
width = 600;
},
{
layerId = "B26C53A4-97D1-457B-8232-65310EC64496";
shapes = (
{
closed = 1;
nodes = (
(33,742,l),
(33,634,l),
(189,634,l),
(189,187,ls),
(189,63,o),
(247,-17,o),
(375,-17,cs),
(443,-17,o),
(493,-1,o),
(529,18,c),
(491,124,l),
(469,115,o),
(443,108,o),
(416,108,cs),
(373,108,o),
(347,124,o),
(347,167,cs),
(347,742,l)
);
}
);
width = 600;
}
);
script = math;
unicode = 120469;
},
{
category = Letter;
glyphname = u1D696;
lastChange = "2021-06-26 07:59:45 +0000";
layers = (
{
layerId = "D42A05F0-DBDC-4569-915A-03C7188507B6";
width = 600;
},
{
layerId = "B2FE45D6-EF48-417F-ACCD-B60D15D1CAF3";
width = 600;
},
{
layerId = "D92A4C0B-EB2A-4209-AFE3-2959A8B274DD";
shapes = (
{
closed = 1;
nodes = (
(387,535,o),
(355,506,o),
(328,463,c),
(310,521,o),
(268,535,o),
(228,535,cs),
(174,535,o),
(140,501,o),
(112,462,c),
(109,525,l),
(58,525,l),
(58,0,l),
(118,0,l),
(118,414,l),
(149,465,o),
(183,486,o),
(221,486,cs),
(263,486,o),
(265,454,o),
(265,380,cs),
(265,0,l),
(334,0,l),
(334,414,l),
(365,465,o),
(401,486,o),
(437,486,cs),
(480,486,o),
(482,454,o),
(482,380,cs),
(482,0,l),
(543,0,l),
(543,392,ls),
(543,517,o),
(486,535,o),
(443,535,cs)
);
}
);
width = 600;
},
{
layerId = "B26C53A4-97D1-457B-8232-65310EC64496";
shapes = (
{
closed = 1;
nodes = (
(416,549,o),
(378,523,o),
(346,486,c),
(334,529,o),
(304,549,o),
(264,549,cs),
(217,549,o),
(186,525,o),
(153,480,c),
(143,531,l),
(27,531,l),
(27,0,l),
(164,0,l),
(164,392,l),
(185,418,o),
(203,426,o),
(219,426,cs),
(241,426,o),
(246,412,o),
(246,375,cs),
(246,0,l),
(357,0,l),
(357,392,l),
(378,418,o),
(395,426,o),
(412,426,cs),
(433,426,o),
(438,412,o),
(438,375,cs),
(438,0,l),
(574,0,l),
(574,393,ls),
(574,503,o),
(538,549,o),
(463,549,cs)
);
}
);
width = 600;
}
);
script = math;
unicode = 120470;
},
{
category = Letter;
glyphname = u1D697;
lastChange = "2021-06-26 07:59:45 +0000";
layers = (
{
layerId = "D42A05F0-DBDC-4569-915A-03C7188507B6";
width = 600;
},
{
layerId = "B2FE45D6-EF48-417F-ACCD-B60D15D1CAF3";
width = 600;
},
{
layerId = "D92A4C0B-EB2A-4209-AFE3-2959A8B274DD";
shapes = (
{
closed = 1;
nodes = (
(172,0,l),
(172,387,l),
(199,429,o),
(258,483,o),
(328,483,cs),
(420,483,o),
(430,434,o),
(430,314,cs),
(430,0,l),
(492,0,l),
(492,380,ls),
(492,477,o),
(451,535,o),
(343,535,cs),
(284,535,o),
(208,503,o),
(167,449,c),
(162,525,l),
(110,525,l),
(110,0,l)
);
}
);
width = 600;
},
{
layerId = "B26C53A4-97D1-457B-8232-65310EC64496";
shapes = (
{
closed = 1;
nodes = (
(228,0,l),
(228,372,l),
(258,410,o),
(288,432,o),
(321,432,cs),
(360,432,o),
(372,410,o),
(372,345,cs),
(372,0,l),
(530,0,l),
(530,390,ls),
(530,491,o),
(475,549,o),
(384,549,cs),
(317,549,o),
(266,523,o),
(219,470,c),
(208,531,l),
(70,531,l),
(70,0,l)
);
}
);
width = 600;
}
);
script = math;
unicode = 120471;
},
{
category = Letter;
glyphname = u1D698;
lastChange = "2021-06-26 07:59:45 +0000";
layers = (
{
layerId = "D42A05F0-DBDC-4569-915A-03C7188507B6";
width = 600;
},
{
layerId = "B2FE45D6-EF48-417F-ACCD-B60D15D1CAF3";
width = 600;
},
{
layerId = "D92A4C0B-EB2A-4209-AFE3-2959A8B274DD";
shapes = (
{
closed = 1;
nodes = (
(157,535,o),
(83,422,o),
(83,262,cs),
(83,100,o),
(156,-10,o),
(300,-10,cs),
(443,-10,o),
(517,107,o),
(517,263,cs),
(517,429,o),
(446,535,o),
(302,535,cs)
);
},
{
closed = 1;
nodes = (
(399,480,o),
(449,410,o),
(449,263,cs),
(449,116,o),
(399,45,o),
(300,45,cs),
(202,45,o),
(151,116,o),
(151,262,cs),
(151,410,o),
(203,480,o),
(302,480,cs)
);
}
);
width = 600;
},
{
layerId = "B26C53A4-97D1-457B-8232-65310EC64496";
shapes = (
{
closed = 1;
nodes = (
(138,549,o),
(42,435,o),
(42,266,cs),
(42,88,o),
(138,-17,o),
(300,-17,cs),
(463,-17,o),
(558,90,o),
(558,267,cs),
(558,437,o),
(464,549,o),
(300,549,cs)
);
},
{
closed = 1;
nodes = (
(365,432,o),
(395,382,o),
(395,267,cs),
(395,149,o),
(365,99,o),
(300,99,cs),
(236,99,o),
(205,149,o),
(205,266,cs),
(205,382,o),
(236,432,o),
(300,432,cs)
);
}
);
width = 600;
}
);
script = math;
unicode = 120472;
},
{
category = Letter;
glyphname = u1D699;
lastChange = "2021-06-26 07:59:45 +0000";
layers = (
{
layerId = "D42A05F0-DBDC-4569-915A-03C7188507B6";
width = 600;
},
{
layerId = "B2FE45D6-EF48-417F-ACCD-B60D15D1CAF3";
width = 600;
},
{
layerId = "D92A4C0B-EB2A-4209-AFE3-2959A8B274DD";
shapes = (
{
closed = 1;
nodes = (
(260,535,o),
(205,501,o),
(168,448,c),
(161,525,l),
(110,525,l),
(110,-209,l),
(172,-201,l),
(172,53,l),
(208,11,o),
(256,-10,o),
(315,-10,cs),
(454,-10,o),
(517,105,o),
(517,263,cs),
(517,426,o),
(469,535,o),
(328,535,cs)
);
},
{
closed = 1;
nodes = (
(409,482,o),
(449,403,o),
(449,264,cs),
(449,117,o),
(402,47,o),
(305,47,cs),
(250,47,o),
(201,75,o),
(172,118,c),
(172,390,l),
(202,434,o),
(252,482,o),
(317,482,cs)
);
}
);
width = 600;
},
{
layerId = "B26C53A4-97D1-457B-8232-65310EC64496";
shapes = (
{
closed = 1;
nodes = (
(314,549,o),
(260,527,o),
(217,472,c),
(210,531,l),
(70,531,l),
(70,-222,l),
(228,-205,l),
(228,39,l),
(260,2,o),
(302,-17,o),
(354,-17,cs),
(484,-17,o),
(558,103,o),
(558,267,cs),
(558,440,o),
(503,549,o),
(364,549,cs)
);
},
{
closed = 1;
nodes = (
(365,432,o),
(395,397,o),
(395,265,cs),
(395,146,o),
(362,99,o),
(306,99,cs),
(273,99,o),
(250,114,o),
(228,147,c),
(228,371,l),
(251,409,o),
(279,432,o),
(315,432,cs)
);
}
);
width = 600;
}
);
script = math;
unicode = 120473;
},
{
category = Letter;
glyphname = u1D69A;
lastChange = "2021-06-26 07:59:45 +0000";
layers = (
{
layerId = "D42A05F0-DBDC-4569-915A-03C7188507B6";
width = 600;
},
{
layerId = "B2FE45D6-EF48-417F-ACCD-B60D15D1CAF3";
width = 600;
},
{
layerId = "D92A4C0B-EB2A-4209-AFE3-2959A8B274DD";
shapes = (
{
closed = 1;
nodes = (
(151,535,o),
(83,418,o),
(83,261,cs),
(83,98,o),
(134,-10,o),
(277,-10,cs),
(333,-10,o),
(388,14,o),
(429,73,c),
(429,-201,l),
(491,-209,l),
(491,525,l),
(439,525,l),
(432,463,l),
(395,510,o),
(347,535,o),
(280,535,cs)
);
},
{
closed = 1;
nodes = (
(350,481,o),
(399,454,o),
(429,407,c),
(429,134,l),
(398,89,o),
(350,46,o),
(285,46,cs),
(194,46,o),
(151,124,o),
(151,262,cs),
(151,407,o),
(199,481,o),
(295,481,cs)
);
}
);
width = 600;
},
{
layerId = "B26C53A4-97D1-457B-8232-65310EC64496";
shapes = (
{
closed = 1;
nodes = (
(119,549,o),
(42,431,o),
(42,267,cs),
(42,95,o),
(100,-17,o),
(236,-17,cs),
(299,-17,o),
(341,8,o),
(372,45,c),
(372,-205,l),
(530,-222,l),
(530,531,l),
(392,531,l),
(385,489,l),
(353,528,o),
(307,549,o),
(255,549,cs)
);
},
{
closed = 1;
nodes = (
(329,433,o),
(351,417,o),
(372,390,c),
(372,161,l),
(350,123,o),
(323,100,o),
(286,100,cs),
(237,100,o),
(205,135,o),
(205,266,cs),
(205,386,o),
(238,433,o),
(296,433,cs)
);
}
);
width = 600;
}
);
script = math;
unicode = 120474;
},
{
category = Letter;
glyphname = u1D69B;
lastChange = "2021-06-26 07:59:45 +0000";
layers = (
{
layerId = "D42A05F0-DBDC-4569-915A-03C7188507B6";
width = 600;
},
{
layerId = "B2FE45D6-EF48-417F-ACCD-B60D15D1CAF3";
width = 600;
},
{
layerId = "D92A4C0B-EB2A-4209-AFE3-2959A8B274DD";
shapes = (
{
closed = 1;
nodes = (
(370,0,l),
(370,52,l),
(262,52,l),
(262,296,l),
(300,421,o),
(358,476,o),
(443,476,cs),
(465,476,o),
(480,473,o),
(504,467,c),
(521,525,l),
(497,531,o),
(478,536,o),
(450,536,cs),
(352,536,o),
(300,485,o),
(259,399,c),
(248,525,l),
(115,525,l),
(115,473,l),
(200,473,l),
(200,52,l),
(115,52,l),
(115,0,l)
);
},
{
closed = 1;
nodes = (
(514,360,l),
(521,525,l),
(458,525,l),
(454,463,l),
(454,360,l)
);
}
);
width = 600;
},
{
layerId = "B26C53A4-97D1-457B-8232-65310EC64496";
shapes = (
{
closed = 1;
nodes = (
(408,0,l),
(408,106,l),
(303,106,l),
(303,258,l),
(331,346,o),
(385,409,o),
(454,409,cs),
(478,409,o),
(496,406,o),
(515,401,c),
(563,531,l),
(538,541,o),
(512,547,o),
(476,547,cs),
(390,547,o),
(333,503,o),
(295,412,c),
(266,531,l),
(75,531,l),
(75,426,l),
(145,426,l),
(145,106,l),
(75,106,l),
(75,0,l)
);
},
{
closed = 1;
nodes = (
(534,309,l),
(563,531,l),
(458,531,l),
(435,464,l),
(435,309,l)
);
}
);
width = 600;
}
);
script = math;
unicode = 120475;
},
{
category = Letter;
glyphname = u1D69C;
lastChange = "2021-06-26 07:59:45 +0000";
layers = (
{
layerId = "D42A05F0-DBDC-4569-915A-03C7188507B6";
width = 600;
},
{
layerId = "B2FE45D6-EF48-417F-ACCD-B60D15D1CAF3";
width = 600;
},
{
layerId = "D92A4C0B-EB2A-4209-AFE3-2959A8B274DD";
shapes = (
{
closed = 1;
nodes = (
(217,47,o),
(161,69,o),
(120,104,c),
(82,59,l),
(124,22,o),
(186,-10,o),
(278,-10,cs),
(384,-10,o),
(492,31,o),
(492,142,cs),
(492,239,o),
(423,275,o),
(320,303,cs),
(213,331,o),
(176,350,o),
(176,402,cs),
(176,447,o),
(209,480,o),
(302,480,cs),
(374,480,o),
(418,459,o),
(456,432,c),
(485,478,l),
(444,509,o),
(383,535,o),
(301,535,cs),
(192,535,o),
(111,484,o),
(111,397,cs),
(111,306,o),
(182,276,o),
(295,249,cs),
(408,221,o),
(422,192,o),
(422,140,cs),
(422,84,o),
(368,47,o),
(279,47,cs)
);
}
);
width = 600;
},
{
layerId = "B26C53A4-97D1-457B-8232-65310EC64496";
shapes = (
{
closed = 1;
nodes = (
(221,96,o),
(168,120,o),
(127,152,c),
(48,63,l),
(103,15,o),
(181,-17,o),
(284,-17,cs),
(420,-17,o),
(535,42,o),
(535,159,cs),
(535,263,o),
(468,298,o),
(365,327,cs),
(261,357,o),
(240,368,o),
(240,395,cs),
(240,423,o),
(264,436,o),
(316,436,cs),
(367,436,o),
(419,418,o),
(463,391,c),
(526,484,l),
(475,522,o),
(406,549,o),
(311,549,cs),
(162,549,o),
(81,479,o),
(81,385,cs),
(81,291,o),
(148,248,o),
(245,222,cs),
(351,193,o),
(371,180,o),
(371,146,cs),
(371,113,o),
(336,96,o),
(283,96,cs)
);
}
);
width = 600;
}
);
script = math;
unicode = 120476;
},
{
category = Letter;
glyphname = u1D69D;
lastChange = "2021-06-26 07:59:45 +0000";
layers = (
{
layerId = "D42A05F0-DBDC-4569-915A-03C7188507B6";
width = 600;
},
{
layerId = "B2FE45D6-EF48-417F-ACCD-B60D15D1CAF3";
width = 600;
},
{
layerId = "D92A4C0B-EB2A-4209-AFE3-2959A8B274DD";
shapes = (
{
closed = 1;
nodes = (
(483,70,l),
(454,54,o),
(420,44,o),
(380,44,cs),
(302,44,o),
(272,79,o),
(272,139,cs),
(272,473,l),
(449,473,l),
(457,525,l),
(272,525,l),
(272,654,l),
(210,646,l),
(210,525,l),
(86,525,l),
(86,473,l),
(210,473,l),
(210,138,ls),
(210,53,o),
(273,-10,o),
(379,-10,cs),
(421,-10,o),
(476,3,o),
(510,25,c)
);
}
);
width = 600;
},
{
layerId = "B26C53A4-97D1-457B-8232-65310EC64496";
shapes = (
{
closed = 1;
nodes = (
(496,132,l),
(471,118,o),
(440,108,o),
(403,108,cs),
(350,108,o),
(327,128,o),
(327,181,cs),
(327,422,l),
(483,422,l),
(498,531,l),
(327,531,l),
(327,665,l),
(169,646,l),
(169,531,l),
(58,531,l),
(58,422,l),
(169,422,l),
(169,181,ls),
(169,59,o),
(235,-17,o),
(374,-17,cs),
(448,-17,o),
(507,4,o),
(548,31,c)
);
}
);
width = 600;
}
);
script = math;
unicode = 120477;
},
{
category = Letter;
glyphname = u1D69E;
lastChange = "2021-06-26 07:59:45 +0000";
layers = (
{
layerId = "D42A05F0-DBDC-4569-915A-03C7188507B6";
width = 600;
},
{
layerId = "B2FE45D6-EF48-417F-ACCD-B60D15D1CAF3";
width = 600;
},
{
layerId = "D92A4C0B-EB2A-4209-AFE3-2959A8B274DD";
shapes = (
{
closed = 1;
nodes = (
(110,525,l),
(110,142,ls),
(110,46,o),
(160,-10,o),
(262,-10,cs),
(323,-10,o),
(389,20,o),
(432,74,c),
(439,0,l),
(491,0,l),
(491,525,l),
(429,525,l),
(429,134,l),
(398,86,o),
(336,42,o),
(271,42,cs),
(202,42,o),
(172,75,o),
(172,150,cs),
(172,525,l)
);
}
);
width = 600;
},
{
layerId = "B26C53A4-97D1-457B-8232-65310EC64496";
shapes = (
{
closed = 1;
nodes = (
(70,531,l),
(70,148,ls),
(70,47,o),
(119,-17,o),
(222,-17,cs),
(286,-17,o),
(349,10,o),
(385,62,c),
(392,0,l),
(530,0,l),
(530,531,l),
(372,531,l),
(372,158,l),
(350,122,o),
(315,100,o),
(282,100,cs),
(248,100,o),
(228,116,o),
(228,168,cs),
(228,531,l)
);
}
);
width = 600;
}
);
script = math;
unicode = 120478;
},
{
category = Letter;
glyphname = u1D69F;
lastChange = "2021-06-26 07:59:45 +0000";
layers = (
{
layerId = "D42A05F0-DBDC-4569-915A-03C7188507B6";
width = 600;
},
{
layerId = "B2FE45D6-EF48-417F-ACCD-B60D15D1CAF3";
width = 600;
},
{
layerId = "D92A4C0B-EB2A-4209-AFE3-2959A8B274DD";
shapes = (
{
closed = 1;
nodes = (
(465,525,l),
(302,63,l),
(135,525,l),
(70,525,l),
(263,0,l),
(335,0,l),
(530,525,l)
);
}
);
width = 600;
},
{
layerId = "B26C53A4-97D1-457B-8232-65310EC64496";
shapes = (
{
closed = 1;
nodes = (
(411,531,l),
(303,121,l),
(200,531,l),
(29,531,l),
(208,0,l),
(394,0,l),
(571,531,l)
);
}
);
width = 600;
}
);
script = math;
unicode = 120479;
},
{
category = Letter;
glyphname = u1D6A0;
lastChange = "2021-06-26 07:59:45 +0000";
layers = (
{
layerId = "D42A05F0-DBDC-4569-915A-03C7188507B6";
width = 600;
},
{
layerId = "B2FE45D6-EF48-417F-ACCD-B60D15D1CAF3";
width = 600;
},
{
layerId = "D92A4C0B-EB2A-4209-AFE3-2959A8B274DD";
shapes = (
{
closed = 1;
nodes = (
(579,525,l),
(514,525,l),
(437,38,l),
(349,458,l),
(260,458,l),
(167,38,l),
(90,525,l),
(22,525,l),
(123,0,l),
(223,0,l),
(304,395,l),
(379,0,l),
(482,0,l)
);
}
);
width = 600;
},
{
layerId = "B26C53A4-97D1-457B-8232-65310EC64496";
shapes = (
{
closed = 1;
nodes = (
(597,531,l),
(457,531,l),
(422,99,l),
(372,464,l),
(239,464,l),
(183,99,l),
(148,531,l),
(4,531,l),
(82,0,l),
(254,0,l),
(301,357,l),
(347,0,l),
(521,0,l)
);
}
);
width = 600;
}
);
script = math;
unicode = 120480;
},
{
category = Letter;
glyphname = u1D6A1;
lastChange = "2021-06-26 07:59:45 +0000";
layers = (
{
layerId = "D42A05F0-DBDC-4569-915A-03C7188507B6";
width = 600;
},
{
layerId = "B2FE45D6-EF48-417F-ACCD-B60D15D1CAF3";
width = 600;
},
{
layerId = "D92A4C0B-EB2A-4209-AFE3-2959A8B274DD";
shapes = (
{
closed = 1;
nodes = (
(299,234,l),
(454,0,l),
(535,0,l),
(337,281,l),
(512,525,l),
(437,525,l),
(301,322,l),
(168,525,l),
(92,525,l),
(264,278,l),
(66,0,l),
(139,0,l)
);
}
);
width = 600;
},
{
layerId = "B26C53A4-97D1-457B-8232-65310EC64496";
shapes = (
{
closed = 1;
nodes = (
(294,199,l),
(399,0,l),
(578,0,l),
(395,285,l),
(551,531,l),
(383,531,l),
(301,361,l),
(216,531,l),
(39,531,l),
(204,279,l),
(22,0,l),
(193,0,l)
);
}
);
width = 600;
}
);
script = math;
unicode = 120481;
},
{
category = Letter;
glyphname = u1D6A2;
lastChange = "2021-06-26 07:59:45 +0000";
layers = (
{
layerId = "D42A05F0-DBDC-4569-915A-03C7188507B6";
width = 600;
},
{
layerId = "B2FE45D6-EF48-417F-ACCD-B60D15D1CAF3";
width = 600;
},
{
layerId = "D92A4C0B-EB2A-4209-AFE3-2959A8B274DD";
shapes = (
{
closed = 1;
nodes = (
(464,525,l),
(304,53,l),
(139,525,l),
(72,525,l),
(260,0,l),
(281,0,l),
(253,-86,o),
(224,-135,o),
(114,-155,c),
(125,-209,l),
(258,-193,o),
(307,-102,o),
(341,-5,cs),
(529,525,l)
);
}
);
width = 600;
},
{
layerId = "B26C53A4-97D1-457B-8232-65310EC64496";
shapes = (
{
closed = 1;
nodes = (
(410,531,l),
(298,101,l),
(195,531,l),
(28,531,l),
(197,0,l),
(251,0,l),
(222,-69,o),
(184,-98,o),
(80,-111,c),
(98,-223,l),
(259,-214,o),
(348,-141,o),
(395,0,cs),
(572,531,l)
);
}
);
width = 600;
}
);
script = math;
unicode = 120482;
},
{
category = Letter;
glyphname = u1D6A3;
lastChange = "2021-06-26 07:59:45 +0000";
layers = (
{
layerId = "D42A05F0-DBDC-4569-915A-03C7188507B6";
width = 600;
},
{
layerId = "B2FE45D6-EF48-417F-ACCD-B60D15D1CAF3";
width = 600;
},
{
layerId = "D92A4C0B-EB2A-4209-AFE3-2959A8B274DD";
shapes = (
{
closed = 1;
nodes = (
(489,474,l),
(489,525,l),
(135,525,l),
(135,466,l),
(412,466,l),
(112,50,l),
(112,0,l),
(481,0,l),
(491,58,l),
(190,58,l)
);
}
);
width = 600;
},
{
layerId = "B26C53A4-97D1-457B-8232-65310EC64496";
shapes = (
{
closed = 1;
nodes = (
(520,420,l),
(520,531,l),
(94,531,l),
(94,412,l),
(336,412,l),
(72,112,l),
(72,0,l),
(510,0,l),
(525,120,l),
(259,120,l)
);
}
);
width = 600;
}
);
script = math;
unicode = 120483;
},
{
category = Number;
glyphname = u1D7F6;
lastChange = "2021-06-26 07:59:45 +0000";
layers = (
{
background = {
shapes = (
{
closed = 1;
nodes = (
(158,697,o),
(82,572,o),
(82,344,cs),
(82,115,o),
(158,-10,o),
(300,-10,cs),
(443,-10,o),
(518,115,o),
(518,344,cs),
(518,572,o),
(443,697,o),
(300,697,cs)
);
},
{
closed = 1;
nodes = (
(401,643,o),
(448,551,o),
(448,344,cs),
(448,134,o),
(390,45,o),
(300,45,cs),
(201,45,o),
(153,137,o),
(153,344,cs),
(153,555,o),
(212,643,o),
(300,643,cs)
);
},
{
closed = 1;
nodes = (
(169,141,l),
(196,86,l),
(425,548,l),
(409,618,l)
);
}
);
};
layerId = "D42A05F0-DBDC-4569-915A-03C7188507B6";
shapes = (
{
closed = 1;
nodes = (
(442,-9,o),
(507,121,o),
(507,344,cs),
(507,568,o),
(437,689,o),
(300,689,cs),
(168,689,o),
(93,569,o),
(93,344,cs),
(93,121,o),
(160,-9,o),
(300,-9,cs)
);
},
{
closed = 1;
nodes = (
(162,-7,o),
(95,121,o),
(95,344,cs),
(95,569,o),
(170,687,o),
(300,687,cs),
(435,687,o),
(505,568,o),
(505,344,cs),
(505,121,o),
(440,-7,o),
(300,-7,cs)
);
},
{
closed = 1;
nodes = (
(438,623,l),
(437,625,l),
(157,65,l),
(158,63,l)
);
}
);
width = 600;
},
{
layerId = "B2FE45D6-EF48-417F-ACCD-B60D15D1CAF3";
shapes = (
{
closed = 1;
nodes = (
(442,-9,o),
(507,121,o),
(507,344,cs),
(507,568,o),
(437,689,o),
(300,689,cs),
(168,689,o),
(93,569,o),
(93,344,cs),
(93,121,o),
(160,-9,o),
(300,-9,cs)
);
},
{
closed = 1;
nodes = (
(162,-7,o),
(95,121,o),
(95,344,cs),
(95,569,o),
(170,687,o),
(300,687,cs),
(435,687,o),
(505,568,o),
(505,344,cs),
(505,121,o),
(440,-7,o),
(300,-7,cs)
);
},
{
closed = 1;
nodes = (
(438,623,l),
(437,625,l),
(157,65,l),
(158,63,l)
);
}
);
width = 600;
},
{
layerId = "D92A4C0B-EB2A-4209-AFE3-2959A8B274DD";
shapes = (
{
closed = 1;
nodes = (
(443,-10,o),
(518,115,o),
(518,344,cs),
(518,572,o),
(443,697,o),
(300,697,cs),
(158,697,o),
(82,572,o),
(82,344,cs),
(82,115,o),
(158,-10,o),
(300,-10,cs)
);
},
{
closed = 1;
nodes = (
(201,45,o),
(153,137,o),
(153,344,cs),
(153,555,o),
(212,643,o),
(300,643,cs),
(401,643,o),
(448,551,o),
(448,344,cs),
(448,134,o),
(390,45,o),
(300,45,cs)
);
},
{
closed = 1;
nodes = (
(425,548,l),
(409,618,l),
(169,141,l),
(196,86,l)
);
}
);
width = 600;
},
{
layerId = "B26C53A4-97D1-457B-8232-65310EC64496";
shapes = (
{
closed = 1;
nodes = (
(466,-17,o),
(551,119,o),
(551,348,cs),
(551,576,o),
(466,711,o),
(300,711,cs),
(134,711,o),
(50,576,o),
(50,348,cs),
(50,119,o),
(134,-17,o),
(300,-17,cs)
);
},
{
closed = 1;
nodes = (
(221,97,o),
(198,140,o),
(198,348,cs),
(198,528,o),
(230,596,o),
(300,596,cs),
(379,596,o),
(401,552,o),
(401,348,cs),
(401,163,o),
(371,97,o),
(300,97,cs)
);
},
{
closed = 1;
nodes = (
(419,488,l),
(379,574,l),
(189,177,l),
(234,106,l)
);
}
);
width = 600;
}
);
unicode = 120822;
},
{
category = Number;
glyphname = u1D7F7;
lastChange = "2021-06-26 07:59:45 +0000";
layers = (
{
background = {
shapes = (
{
closed = 1;
nodes = (
(306,687,l),
(106,563,l),
(134,518,l),
(296,616,l),
(296,20,l),
(360,20,l),
(360,687,l)
);
},
{
closed = 1;
nodes = (
(126,54,l),
(126,0,l),
(508,0,l),
(508,54,l)
);
}
);
};
layerId = "D42A05F0-DBDC-4569-915A-03C7188507B6";
shapes = (
{
closed = 1;
nodes = (
(329,1,l),
(329,678,l),
(327,678,l),
(122,551,l),
(123,549,l),
(327,676,l),
(327,1,l)
);
},
{
closed = 1;
nodes = (
(502,0,l),
(502,2,l),
(132,2,l),
(132,0,l)
);
}
);
width = 600;
},
{
layerId = "B2FE45D6-EF48-417F-ACCD-B60D15D1CAF3";
shapes = (
{
closed = 1;
nodes = (
(329,1,l),
(329,678,l),
(327,678,l),
(122,551,l),
(123,549,l),
(327,676,l),
(327,1,l)
);
},
{
closed = 1;
nodes = (
(502,0,l),
(502,2,l),
(132,2,l),
(132,0,l)
);
}
);
width = 600;
},
{
layerId = "D92A4C0B-EB2A-4209-AFE3-2959A8B274DD";
shapes = (
{
closed = 1;
nodes = (
(360,20,l),
(360,687,l),
(306,687,l),
(106,563,l),
(134,518,l),
(296,616,l),
(296,20,l)
);
},
{
closed = 1;
nodes = (
(508,0,l),
(508,54,l),
(126,54,l),
(126,0,l)
);
}
);
width = 600;
},
{
layerId = "B26C53A4-97D1-457B-8232-65310EC64496";
shapes = (
{
closed = 1;
nodes = (
(422,20,l),
(422,693,l),
(282,693,l),
(58,557,l),
(125,449,l),
(268,538,l),
(268,20,l)
);
},
{
closed = 1;
nodes = (
(551,0,l),
(551,120,l),
(101,120,l),
(101,0,l)
);
}
);
width = 600;
}
);
unicode = 120823;
},
{
category = Number;
glyphname = u1D7F8;
lastChange = "2021-06-26 07:59:45 +0000";
layers = (
{
background = {
shapes = (
{
closed = 1;
nodes = (
(180,697,o),
(120,669,o),
(65,604,c),
(111,567,l),
(157,619,o),
(195,642,o),
(267,642,cs),
(349,642,o),
(399,591,o),
(399,507,cs),
(399,386,o),
(348,313,o),
(79,56,c),
(79,0,l),
(473,0,l),
(482,57,l),
(149,57,l),
(381,270,o),
(466,376,o),
(466,506,cs),
(466,617,o),
(389,697,o),
(268,697,cs)
);
}
);
};
layerId = "D42A05F0-DBDC-4569-915A-03C7188507B6";
shapes = (
{
closed = 1;
nodes = (
(467,0,l),
(467,2,l),
(88,2,l),
(321,231,o),
(439,381,o),
(439,513,cs),
(439,601,o),
(387,689,o),
(274,689,cs),
(214,689,o),
(151,664,o),
(94,600,c),
(96,599,l),
(153,663,o),
(214,687,o),
(274,687,cs),
(385,687,o),
(437,601,o),
(437,513,cs),
(437,381,o),
(319,232,o),
(85,2,c),
(85,0,l)
);
}
);
width = 600;
},
{
layerId = "B2FE45D6-EF48-417F-ACCD-B60D15D1CAF3";
shapes = (
{
closed = 1;
nodes = (
(467,0,l),
(467,2,l),
(88,2,l),
(321,231,o),
(439,381,o),
(439,513,cs),
(439,601,o),
(387,689,o),
(274,689,cs),
(214,689,o),
(151,664,o),
(94,600,c),
(96,599,l),
(153,663,o),
(214,687,o),
(274,687,cs),
(385,687,o),
(437,601,o),
(437,513,cs),
(437,381,o),
(319,232,o),
(85,2,c),
(85,0,l)
);
}
);
width = 600;
},
{
layerId = "D92A4C0B-EB2A-4209-AFE3-2959A8B274DD";
shapes = (
{
closed = 1;
nodes = (
(473,0,l),
(482,57,l),
(149,57,l),
(381,270,o),
(466,376,o),
(466,506,cs),
(466,617,o),
(389,697,o),
(268,697,cs),
(180,697,o),
(120,669,o),
(65,604,c),
(111,567,l),
(157,619,o),
(195,642,o),
(267,642,cs),
(349,642,o),
(399,591,o),
(399,507,cs),
(399,386,o),
(348,313,o),
(79,56,c),
(79,0,l)
);
}
);
width = 600;
},
{
layerId = "B26C53A4-97D1-457B-8232-65310EC64496";
shapes = (
{
closed = 1;
nodes = (
(514,0,l),
(531,121,l),
(235,121,l),
(446,309,o),
(515,400,o),
(515,512,cs),
(515,618,o),
(434,711,o),
(276,711,cs),
(165,711,o),
(92,664,o),
(40,592,c),
(137,519,l),
(173,568,o),
(209,589,o),
(261,589,cs),
(321,589,o),
(354,554,o),
(354,498,cs),
(354,416,o),
(282,333,o),
(54,112,c),
(54,0,l)
);
}
);
width = 600;
}
);
unicode = 120824;
},
{
category = Number;
glyphname = u1D7F9;
lastChange = "2021-06-26 07:59:45 +0000";
layers = (
{
background = {
shapes = (
{
closed = 1;
nodes = (
(205,697,o),
(142,675,o),
(85,622,c),
(121,580,l),
(168,624,o),
(208,644,o),
(269,644,cs),
(345,644,o),
(408,601,o),
(408,518,cs),
(408,429,o),
(337,389,o),
(269,389,cs),
(230,389,l),
(222,335,l),
(278,335,ls),
(362,335,o),
(428,302,o),
(428,196,cs),
(428,104,o),
(368,45,o),
(264,45,cs),
(207,45,o),
(147,68,o),
(109,114,c),
(62,79,l),
(113,15,o),
(194,-10,o),
(264,-10,cs),
(399,-10,o),
(494,80,o),
(494,200,cs),
(494,304,o),
(416,363,o),
(340,367,c),
(409,378,o),
(472,444,o),
(472,526,cs),
(472,619,o),
(392,697,o),
(268,697,cs)
);
}
);
};
layerId = "D42A05F0-DBDC-4569-915A-03C7188507B6";
shapes = (
{
closed = 1;
nodes = (
(390,-9,o),
(471,86,o),
(471,184,cs),
(471,283,o),
(389,354,o),
(274,362,c),
(390,371,o),
(449,446,o),
(449,524,cs),
(449,611,o),
(376,689,o),
(273,689,cs),
(209,689,o),
(151,658,o),
(107,615,c),
(108,613,l),
(152,656,o),
(209,687,o),
(273,687,cs),
(375,687,o),
(447,610,o),
(447,524,cs),
(447,445,o),
(384,363,o),
(249,363,cs),
(242,363,l),
(242,361,l),
(249,361,ls),
(384,361,o),
(469,283,o),
(469,184,cs),
(469,87,o),
(389,-7,o),
(269,-7,cs),
(188,-7,o),
(124,36,o),
(80,85,c),
(79,83,l),
(123,34,o),
(188,-9,o),
(269,-9,cs)
);
}
);
width = 600;
},
{
layerId = "B2FE45D6-EF48-417F-ACCD-B60D15D1CAF3";
shapes = (
{
closed = 1;
nodes = (
(390,-9,o),
(471,86,o),
(471,184,cs),
(471,283,o),
(389,354,o),
(274,362,c),
(390,371,o),
(449,446,o),
(449,524,cs),
(449,611,o),
(376,689,o),
(273,689,cs),
(209,689,o),
(151,658,o),
(107,615,c),
(108,613,l),
(152,656,o),
(209,687,o),
(273,687,cs),
(375,687,o),
(447,610,o),
(447,524,cs),
(447,445,o),
(384,363,o),
(249,363,cs),
(242,363,l),
(242,361,l),
(249,361,ls),
(384,361,o),
(469,283,o),
(469,184,cs),
(469,87,o),
(389,-7,o),
(269,-7,cs),
(188,-7,o),
(124,36,o),
(80,85,c),
(79,83,l),
(123,34,o),
(188,-9,o),
(269,-9,cs)
);
}
);
width = 600;
},
{
layerId = "D92A4C0B-EB2A-4209-AFE3-2959A8B274DD";
shapes = (
{
closed = 1;
nodes = (
(399,-10,o),
(494,80,o),
(494,200,cs),
(494,304,o),
(416,363,o),
(340,367,c),
(409,378,o),
(472,444,o),
(472,526,cs),
(472,619,o),
(392,697,o),
(268,697,cs),
(205,697,o),
(142,675,o),
(85,622,c),
(121,580,l),
(168,624,o),
(208,644,o),
(269,644,cs),
(345,644,o),
(408,601,o),
(408,518,cs),
(408,429,o),
(337,389,o),
(269,389,cs),
(230,389,l),
(222,335,l),
(278,335,ls),
(362,335,o),
(428,302,o),
(428,196,cs),
(428,104,o),
(368,45,o),
(264,45,cs),
(207,45,o),
(147,68,o),
(109,114,c),
(62,79,l),
(113,15,o),
(194,-10,o),
(264,-10,cs)
);
}
);
width = 600;
},
{
layerId = "B26C53A4-97D1-457B-8232-65310EC64496";
shapes = (
{
closed = 1;
nodes = (
(429,-17,o),
(530,78,o),
(530,195,cs),
(530,307,o),
(462,354,o),
(367,367,c),
(452,392,o),
(508,445,o),
(508,533,cs),
(508,630,o),
(422,711,o),
(272,711,cs),
(177,711,o),
(98,678,o),
(35,617,c),
(116,533,l),
(156,570,o),
(199,593,o),
(255,593,cs),
(314,593,o),
(355,561,o),
(355,509,cs),
(355,449,o),
(312,419,o),
(251,419,cs),
(206,419,l),
(188,310,l),
(251,310,ls),
(325,310,o),
(368,280,o),
(368,206,cs),
(368,140,o),
(320,104,o),
(252,104,cs),
(197,104,o),
(147,124,o),
(107,170,c),
(18,87,l),
(76,21,o),
(159,-17,o),
(262,-17,cs)
);
}
);
width = 600;
}
);
unicode = 120825;
},
{
category = Number;
glyphname = u1D7FA;
lastChange = "2021-06-26 07:59:45 +0000";
layers = (
{
background = {
shapes = (
{
closed = 1;
nodes = (
(80,222,l),
(80,174,l),
(521,174,l),
(521,226,l),
(147,226,l),
(336,673,l),
(285,697,l)
);
},
{
closed = 1;
nodes = (
(375,430,l),
(366,210,l),
(366,0,l),
(426,0,l),
(426,430,l)
);
}
);
};
layerId = "D42A05F0-DBDC-4569-915A-03C7188507B6";
shapes = (
{
closed = 1;
nodes = (
(509,199,l),
(509,201,l),
(98,201,l),
(305,680,l),
(303,681,l),
(96,201,l),
(96,199,l)
);
},
{
closed = 1;
nodes = (
(391,0,l),
(391,430,l),
(389,430,l),
(389,200,l),
(389,0,l)
);
}
);
width = 600;
},
{
layerId = "B2FE45D6-EF48-417F-ACCD-B60D15D1CAF3";
shapes = (
{
closed = 1;
nodes = (
(509,199,l),
(509,201,l),
(98,201,l),
(305,680,l),
(303,681,l),
(96,201,l),
(96,199,l)
);
},
{
closed = 1;
nodes = (
(391,0,l),
(391,430,l),
(389,430,l),
(389,200,l),
(389,0,l)
);
}
);
width = 600;
},
{
layerId = "D92A4C0B-EB2A-4209-AFE3-2959A8B274DD";
shapes = (
{
closed = 1;
nodes = (
(521,174,l),
(521,226,l),
(147,226,l),
(336,673,l),
(285,697,l),
(80,222,l),
(80,174,l)
);
},
{
closed = 1;
nodes = (
(426,0,l),
(426,430,l),
(375,430,l),
(366,210,l),
(366,0,l)
);
}
);
width = 600;
},
{
layerId = "B26C53A4-97D1-457B-8232-65310EC64496";
shapes = (
{
closed = 1;
nodes = (
(554,146,l),
(554,264,l),
(208,264,l),
(372,661,l),
(237,711,l),
(45,251,l),
(45,146,l)
);
},
{
closed = 1;
nodes = (
(484,0,l),
(484,431,l),
(351,431,l),
(331,248,l),
(333,0,l)
);
}
);
width = 600;
}
);
unicode = 120826;
},
{
category = Number;
glyphname = u1D7FB;
lastChange = "2021-06-26 07:59:45 +0000";
layers = (
{
background = {
shapes = (
{
closed = 1;
nodes = (
(415,-10,o),
(500,79,o),
(500,215,cs),
(500,352,o),
(428,429,o),
(314,429,cs),
(270,429,o),
(235,421,o),
(190,397,c),
(190,634,l),
(468,634,l),
(479,687,l),
(131,687,l),
(131,352,l),
(187,352,l),
(230,366,o),
(256,375,o),
(302,375,cs),
(375,375,o),
(435,338,o),
(435,219,cs),
(435,102,o),
(380,45,o),
(284,45,cs),
(221,45,o),
(173,65,o),
(129,108,c),
(89,67,l),
(143,18,o),
(201,-10,o),
(279,-10,cs)
);
}
);
};
layerId = "D42A05F0-DBDC-4569-915A-03C7188507B6";
shapes = (
{
closed = 1;
nodes = (
(406,-9,o),
(480,87,o),
(480,219,cs),
(480,351,o),
(405,419,o),
(296,419,cs),
(246,419,o),
(198,405,o),
(154,380,c),
(154,678,l),
(459,678,l),
(459,680,l),
(152,680,l),
(152,378,l),
(155,378,l),
(198,403,o),
(246,417,o),
(296,417,cs),
(404,417,o),
(478,350,o),
(478,219,cs),
(478,88,o),
(405,-7,o),
(281,-7,cs),
(199,-7,o),
(153,35,o),
(110,81,c),
(109,79,l),
(152,33,o),
(199,-9,o),
(281,-9,cs)
);
}
);
width = 600;
},
{
layerId = "B2FE45D6-EF48-417F-ACCD-B60D15D1CAF3";
shapes = (
{
closed = 1;
nodes = (
(406,-8,o),
(480,88,o),
(480,219,cs),
(480,351,o),
(405,419,o),
(296,419,cs),
(246,419,o),
(198,405,o),
(154,380,c),
(154,678,l),
(459,678,l),
(459,680,l),
(152,680,l),
(152,378,l),
(155,378,l),
(198,403,o),
(246,417,o),
(296,417,cs),
(404,417,o),
(478,350,o),
(478,219,cs),
(478,89,o),
(405,-6,o),
(281,-6,cs),
(199,-6,o),
(153,36,o),
(110,82,c),
(109,80,l),
(152,34,o),
(199,-8,o),
(281,-8,cs)
);
}
);
width = 600;
},
{
layerId = "D92A4C0B-EB2A-4209-AFE3-2959A8B274DD";
shapes = (
{
closed = 1;
nodes = (
(415,-10,o),
(500,79,o),
(500,215,cs),
(500,352,o),
(428,429,o),
(314,429,cs),
(270,429,o),
(235,421,o),
(190,397,c),
(190,634,l),
(468,634,l),
(479,687,l),
(131,687,l),
(131,352,l),
(187,352,l),
(230,366,o),
(256,375,o),
(302,375,cs),
(375,375,o),
(435,338,o),
(435,219,cs),
(435,102,o),
(380,45,o),
(284,45,cs),
(221,45,o),
(173,65,o),
(129,108,c),
(89,67,l),
(143,18,o),
(201,-10,o),
(279,-10,cs)
);
}
);
width = 600;
},
{
layerId = "B26C53A4-97D1-457B-8232-65310EC64496";
shapes = (
{
closed = 1;
nodes = (
(432,-17,o),
(541,87,o),
(541,228,cs),
(541,368,o),
(454,453,o),
(347,453,cs),
(316,453,o),
(278,447,o),
(244,431,c),
(244,580,l),
(498,580,l),
(515,693,l),
(93,693,l),
(93,321,l),
(200,321,l),
(230,338,o),
(259,344,o),
(285,344,cs),
(341,344,o),
(378,311,o),
(378,225,cs),
(378,153,o),
(330,104,o),
(257,104,cs),
(209,104,o),
(163,127,o),
(130,170,c),
(39,87,l),
(90,24,o),
(169,-17,o),
(269,-17,cs)
);
}
);
width = 600;
}
);
unicode = 120827;
},
{
category = Number;
glyphname = u1D7FC;
lastChange = "2021-06-26 07:59:45 +0000";
layers = (
{
background = {
shapes = (
{
closed = 1;
nodes = (
(418,-10,o),
(516,75,o),
(516,231,cs),
(516,378,o),
(426,444,o),
(321,444,c),
(242,444,o),
(185,410,o),
(139,325,c),
(142,259,l),
(176,333,o),
(235,387,o),
(316,387,c),
(396,387,o),
(451,349,o),
(451,231,cs),
(451,113,o),
(402,45,o),
(307,45,cs),
(197,45,o),
(150,121,o),
(150,294,c),
(149,322,l),
(147,513,o),
(209,642,o),
(328,642,c),
(369,642,o),
(406,631,o),
(438,612,c),
(463,658,l),
(424,683,o),
(382,697,o),
(331,697,c),
(178,697,o),
(88,556,o),
(88,329,cs),
(88,117,o),
(146,-10,o),
(308,-10,cs)
);
}
);
};
layerId = "D42A05F0-DBDC-4569-915A-03C7188507B6";
shapes = (
{
closed = 1;
nodes = (
(423,-9,o),
(499,88,o),
(499,227,cs),
(499,371,o),
(416,427,o),
(323,427,cs),
(241,427,o),
(164,382,o),
(105,283,c),
(105,280,l),
(166,381,o),
(241,425,o),
(323,425,cs),
(416,425,o),
(497,369,o),
(497,227,cs),
(497,89,o),
(422,-7,o),
(309,-7,cs),
(164,-7,o),
(114,142,o),
(106,283,c),
(106,284,l),
(96,462,o),
(145,687,o),
(327,687,cs),
(375,687,o),
(418,671,o),
(452,648,c),
(453,650,l),
(418,673,o),
(375,689,o),
(327,689,cs),
(183,689,o),
(103,544,o),
(103,326,cs),
(103,111,o),
(181,-9,o),
(309,-9,cs)
);
}
);
width = 600;
},
{
layerId = "B2FE45D6-EF48-417F-ACCD-B60D15D1CAF3";
shapes = (
{
closed = 1;
nodes = (
(423,-9,o),
(499,88,o),
(499,227,cs),
(499,371,o),
(416,427,o),
(323,427,cs),
(241,427,o),
(164,382,o),
(105,283,c),
(105,280,l),
(166,381,o),
(241,425,o),
(323,425,cs),
(416,425,o),
(497,369,o),
(497,227,cs),
(497,89,o),
(422,-7,o),
(309,-7,cs),
(164,-7,o),
(114,142,o),
(106,283,c),
(106,284,l),
(96,462,o),
(145,687,o),
(327,687,cs),
(375,687,o),
(418,671,o),
(452,648,c),
(453,650,l),
(418,673,o),
(375,689,o),
(327,689,cs),
(183,689,o),
(103,544,o),
(103,326,cs),
(103,111,o),
(181,-9,o),
(309,-9,cs)
);
}
);
width = 600;
},
{
layerId = "D92A4C0B-EB2A-4209-AFE3-2959A8B274DD";
shapes = (
{
closed = 1;
nodes = (
(418,-10,o),
(516,75,o),
(516,231,cs),
(516,378,o),
(426,444,o),
(321,444,cs),
(242,444,o),
(185,410,o),
(139,325,c),
(142,259,l),
(176,333,o),
(235,387,o),
(316,387,cs),
(396,387,o),
(451,349,o),
(451,231,cs),
(451,113,o),
(402,45,o),
(307,45,cs),
(197,45,o),
(150,121,o),
(150,294,cs),
(149,322,ls),
(147,513,o),
(209,642,o),
(328,642,cs),
(369,642,o),
(406,631,o),
(438,612,c),
(463,658,l),
(424,683,o),
(382,697,o),
(331,697,cs),
(178,697,o),
(88,556,o),
(88,329,cs),
(88,117,o),
(146,-10,o),
(308,-10,cs)
);
}
);
width = 600;
},
{
layerId = "B26C53A4-97D1-457B-8232-65310EC64496";
shapes = (
{
closed = 1;
nodes = (
(459,-17,o),
(554,96,o),
(554,235,cs),
(554,382,o),
(468,465,o),
(360,465,cs),
(306,465,o),
(246,441,o),
(203,389,c),
(204,289,l),
(234,331,o),
(277,356,o),
(319,356,cs),
(368,356,o),
(396,321,o),
(396,226,cs),
(396,154,o),
(370,96,o),
(310,96,cs),
(235,96,o),
(214,173,o),
(215,330,cs),
(214,378,ls),
(216,520,o),
(274,598,o),
(354,598,cs),
(383,598,o),
(414,589,o),
(441,570,c),
(501,666,l),
(462,693,o),
(412,711,o),
(351,711,cs),
(164,711,o),
(50,547,o),
(50,314,cs),
(50,135,o),
(125,-17,o),
(308,-17,cs)
);
}
);
width = 600;
}
);
unicode = 120828;
},
{
category = Number;
glyphname = u1D7FD;
lastChange = "2021-06-26 07:59:45 +0000";
layers = (
{
background = {
shapes = (
{
closed = 1;
nodes = (
(497,636,l),
(497,687,l),
(106,687,l),
(106,632,l),
(435,632,l),
(164,10,l),
(221,-8,l)
);
}
);
};
layerId = "D42A05F0-DBDC-4569-915A-03C7188507B6";
shapes = (
{
closed = 1;
nodes = (
(488,678,l),
(488,680,l),
(112,680,l),
(112,678,l),
(486,678,l),
(195,1,l),
(197,0,l)
);
}
);
width = 600;
},
{
layerId = "B2FE45D6-EF48-417F-ACCD-B60D15D1CAF3";
shapes = (
{
closed = 1;
nodes = (
(488,678,l),
(488,680,l),
(112,680,l),
(112,678,l),
(486,678,l),
(195,1,l),
(197,0,l)
);
}
);
width = 600;
},
{
layerId = "D92A4C0B-EB2A-4209-AFE3-2959A8B274DD";
shapes = (
{
closed = 1;
nodes = (
(497,636,l),
(497,687,l),
(106,687,l),
(106,632,l),
(435,632,l),
(164,10,l),
(221,-8,l)
);
}
);
width = 600;
},
{
layerId = "B26C53A4-97D1-457B-8232-65310EC64496";
shapes = (
{
closed = 1;
nodes = (
(533,586,l),
(533,693,l),
(68,693,l),
(68,574,l),
(373,574,l),
(114,31,l),
(264,-16,l)
);
}
);
width = 600;
}
);
unicode = 120829;
},
{
category = Number;
glyphname = u1D7FE;
lastChange = "2021-06-26 07:59:45 +0000";
layers = (
{
background = {
shapes = (
{
closed = 1;
nodes = (
(436,-10,o),
(528,70,o),
(528,184,cs),
(528,271,o),
(465,333,o),
(377,367,c),
(454,409,o),
(500,456,o),
(500,524,cs),
(500,649,o),
(390,697,o),
(300,697,cs),
(222,697,o),
(101,649,o),
(101,521,cs),
(101,444,o),
(140,396,o),
(214,364,c),
(129,325,o),
(73,269,o),
(73,183,cs),
(73,73,o),
(158,-10,o),
(299,-10,cs)
);
},
{
closed = 1;
nodes = (
(193,45,o),
(140,95,o),
(140,180,cs),
(140,276,o),
(198,320,o),
(260,346,c),
(373,307,o),
(460,282,o),
(460,182,cs),
(460,103,o),
(401,45,o),
(297,45,cs)
);
},
{
closed = 1;
nodes = (
(229,415,o),
(164,431,o),
(164,519,cs),
(164,597,o),
(214,644,o),
(300,644,cs),
(386,644,o),
(437,598,o),
(437,523,cs),
(437,453,o),
(399,420,o),
(330,383,c)
);
}
);
};
layerId = "D42A05F0-DBDC-4569-915A-03C7188507B6";
shapes = (
{
closed = 1;
nodes = (
(436,-10,o),
(528,70,o),
(528,184,cs),
(528,271,o),
(465,333,o),
(377,367,c),
(454,409,o),
(500,456,o),
(500,524,cs),
(500,649,o),
(390,697,o),
(300,697,cs),
(222,697,o),
(101,649,o),
(101,521,cs),
(101,444,o),
(140,396,o),
(214,364,c),
(129,325,o),
(73,269,o),
(73,183,cs),
(73,73,o),
(158,-10,o),
(299,-10,cs)
);
},
{
closed = 1;
nodes = (
(193,45,o),
(140,95,o),
(140,180,cs),
(140,276,o),
(198,320,o),
(260,346,c),
(373,307,o),
(460,282,o),
(460,182,cs),
(460,103,o),
(401,45,o),
(297,45,cs)
);
},
{
closed = 1;
nodes = (
(229,415,o),
(164,431,o),
(164,519,cs),
(164,597,o),
(214,644,o),
(300,644,cs),
(386,644,o),
(437,598,o),
(437,523,cs),
(437,453,o),
(399,420,o),
(330,383,c)
);
},
{
closed = 0;
nodes = (
(333,362,l),
(420,415,o),
(475,451,o),
(475,528,c),
(475,627,o),
(415,677,o),
(296,677,c),
(186,677,o),
(131,627,o),
(131,526,c),
(131,297,o),
(501,411,o),
(501,182,c),
(501,73,o),
(432,18,o),
(293,18,c),
(166,18,o),
(102,72,o),
(102,180,c),
(102,254,o),
(166,330,o),
(261,364,c)
);
}
);
width = 600;
},
{
layerId = "B2FE45D6-EF48-417F-ACCD-B60D15D1CAF3";
width = 600;
},
{
layerId = "D92A4C0B-EB2A-4209-AFE3-2959A8B274DD";
shapes = (
{
closed = 1;
nodes = (
(436,-10,o),
(528,70,o),
(528,184,cs),
(528,271,o),
(465,333,o),
(377,367,c),
(454,409,o),
(500,456,o),
(500,524,cs),
(500,649,o),
(390,697,o),
(300,697,cs),
(222,697,o),
(101,649,o),
(101,521,cs),
(101,444,o),
(140,396,o),
(214,364,c),
(129,325,o),
(73,269,o),
(73,183,cs),
(73,73,o),
(158,-10,o),
(299,-10,cs)
);
},
{
closed = 1;
nodes = (
(193,45,o),
(140,95,o),
(140,180,cs),
(140,276,o),
(198,320,o),
(260,346,c),
(373,307,o),
(460,282,o),
(460,182,cs),
(460,103,o),
(401,45,o),
(297,45,cs)
);
},
{
closed = 1;
nodes = (
(229,415,o),
(164,431,o),
(164,519,cs),
(164,597,o),
(214,644,o),
(300,644,cs),
(386,644,o),
(437,598,o),
(437,523,cs),
(437,453,o),
(399,420,o),
(330,383,c)
);
}
);
width = 600;
},
{
layerId = "B26C53A4-97D1-457B-8232-65310EC64496";
shapes = (
{
closed = 1;
nodes = (
(470,-17,o),
(558,81,o),
(558,188,cs),
(558,266,o),
(516,330,o),
(423,377,c),
(497,419,o),
(531,462,o),
(531,527,cs),
(531,640,o),
(436,711,o),
(301,711,cs),
(169,711,o),
(70,637,o),
(70,519,cs),
(70,442,o),
(99,402,o),
(170,357,c),
(92,323,o),
(43,263,o),
(43,184,cs),
(43,77,o),
(128,-17,o),
(297,-17,cs)
);
},
{
closed = 1;
nodes = (
(234,96,o),
(201,136,o),
(201,194,cs),
(201,249,o),
(227,289,o),
(267,315,c),
(361,282,o),
(400,258,o),
(400,189,cs),
(400,139,o),
(370,96,o),
(301,96,cs)
);
},
{
closed = 1;
nodes = (
(252,442,o),
(220,470,o),
(220,519,cs),
(220,575,o),
(250,603,o),
(301,603,cs),
(354,603,o),
(380,568,o),
(380,518,cs),
(380,480,o),
(367,449,o),
(321,416,c)
);
}
);
width = 600;
}
);
unicode = 120830;
},
{
category = Number;
glyphname = u1D7FF;
lastChange = "2021-06-26 07:59:45 +0000";
layers = (
{
background = {
shapes = (
{
closed = 1;
nodes = (
(400,56,o),
(503,130,o),
(503,412,cs),
(503,588,o),
(432,695,o),
(288,695,cs),
(170,695,o),
(74,623,o),
(74,476,c),
(74,337,o),
(155,257,o),
(271,257,cs),
(351,257,o),
(410,302,o),
(449,364,c),
(449,432,l),
(402,358,o),
(352,311,o),
(276,311,cs),
(189,311,o),
(139,360,o),
(139,471,c),
(139,581,o),
(189,640,o),
(288,640,cs),
(386,640,o),
(438,580,o),
(438,400,c),
(436,354,l),
(436,168,o),
(338,89,o),
(137,32,c),
(153,-19,l)
);
}
);
};
layerId = "D42A05F0-DBDC-4569-915A-03C7188507B6";
shapes = (
{
closed = 1;
nodes = (
(339,51,o),
(488,163,o),
(488,412,cs),
(488,579,o),
(424,689,o),
(290,689,cs),
(179,689,o),
(88,614,o),
(88,474,cs),
(88,343,o),
(169,276,o),
(273,276,cs),
(369,276,o),
(440,332,o),
(487,421,c),
(487,424,l),
(439,334,o),
(369,278,o),
(273,278,cs),
(170,278,o),
(90,344,o),
(90,474,cs),
(90,613,o),
(180,687,o),
(290,687,cs),
(420,687,o),
(483,584,o),
(486,421,c),
(486,420,l),
(488,195,o),
(373,62,o),
(152,1,c),
(153,-1,l)
);
}
);
width = 600;
},
{
layerId = "B2FE45D6-EF48-417F-ACCD-B60D15D1CAF3";
shapes = (
{
closed = 1;
nodes = (
(339,51,o),
(488,163,o),
(488,412,cs),
(488,579,o),
(424,689,o),
(290,689,cs),
(179,689,o),
(88,614,o),
(88,474,cs),
(88,343,o),
(169,276,o),
(273,276,cs),
(369,276,o),
(440,332,o),
(487,421,c),
(487,424,l),
(439,334,o),
(369,278,o),
(273,278,cs),
(170,278,o),
(90,344,o),
(90,474,cs),
(90,613,o),
(180,687,o),
(290,687,cs),
(420,687,o),
(483,584,o),
(486,421,c),
(486,420,l),
(488,195,o),
(373,62,o),
(152,1,c),
(153,-1,l)
);
}
);
width = 600;
},
{
layerId = "D92A4C0B-EB2A-4209-AFE3-2959A8B274DD";
shapes = (
{
closed = 1;
nodes = (
(400,56,o),
(503,130,o),
(503,412,cs),
(503,588,o),
(432,695,o),
(288,695,cs),
(170,695,o),
(74,623,o),
(74,476,c),
(74,337,o),
(155,257,o),
(271,257,cs),
(351,257,o),
(410,302,o),
(449,364,c),
(449,432,l),
(402,358,o),
(352,311,o),
(276,311,cs),
(189,311,o),
(139,360,o),
(139,471,c),
(139,581,o),
(189,640,o),
(288,640,cs),
(386,640,o),
(438,580,o),
(438,400,c),
(436,354,l),
(436,168,o),
(338,89,o),
(137,32,c),
(153,-19,l)
);
}
);
width = 600;
},
{
layerId = "B26C53A4-97D1-457B-8232-65310EC64496";
shapes = (
{
closed = 1;
nodes = (
(420,31,o),
(551,168,o),
(551,434,cs),
(551,598,o),
(466,711,o),
(296,711,cs),
(153,711,o),
(44,611,o),
(44,462,c),
(44,327,o),
(131,240,o),
(240,240,cs),
(309,240,o),
(357,270,o),
(406,320,c),
(408,409,l),
(370,371,o),
(335,350,o),
(289,350,cs),
(241,350,o),
(203,381,o),
(203,466,c),
(203,557,o),
(238,598,o),
(295,598,cs),
(377,598,o),
(390,527,o),
(388,380,c),
(388,327,l),
(366,199,o),
(274,126,o),
(96,81,c),
(129,-30,l)
);
}
);
width = 600;
}
);
unicode = 120831;
},
{
category = Number;
glyphname = u1D7F9.alt;
lastChange = "2021-06-26 07:59:45 +0000";
layers = (
{
layerId = "D42A05F0-DBDC-4569-915A-03C7188507B6";
width = 600;
},
{
layerId = "B2FE45D6-EF48-417F-ACCD-B60D15D1CAF3";
width = 600;
},
{
layerId = "D92A4C0B-EB2A-4209-AFE3-2959A8B274DD";
shapes = (
{
closed = 1;
nodes = (
(428,-9,o),
(521,74,o),
(521,203,cs),
(521,315,o),
(461,399,o),
(280,399,cs),
(224,399,l),
(182,338,l),
(310,338,ls),
(402,338,o),
(455,295,o),
(455,205,cs),
(455,114,o),
(399,51,o),
(286,51,cs),
(203,51,o),
(162,75,o),
(114,106,c),
(79,62,l),
(134,16,o),
(189,-9,o),
(283,-9,cs)
);
},
{
closed = 1;
nodes = (
(226,366,l),
(494,629,l),
(494,687,l),
(102,687,l),
(102,630,l),
(415,630,l),
(182,396,l),
(182,338,l)
);
}
);
width = 600;
},
{
layerId = "B26C53A4-97D1-457B-8232-65310EC64496";
shapes = (
{
closed = 1;
nodes = (
(455,-20,o),
(559,84,o),
(559,213,cs),
(559,338,o),
(477,402,o),
(349,402,cs),
(318,402,l),
(163,307,l),
(259,307,ls),
(339,307,o),
(390,285,o),
(390,211,cs),
(390,132,o),
(341,100,o),
(274,100,cs),
(213,100,o),
(170,117,o),
(117,157,c),
(41,70,l),
(97,20,o),
(161,-20,o),
(281,-20,cs)
);
},
{
closed = 1;
nodes = (
(285,347,l),
(523,575,l),
(523,693,l),
(81,693,l),
(81,570,l),
(349,570,l),
(163,393,l),
(163,307,l)
);
}
);
width = 600;
}
);
},
